
 
<svg xmlns="http://www.w3.org/2000/svg" xmlns:xlink="http://www.w3.org/1999/xlink" viewBox="-2 -2 504 504" id="menu" style="transform-origin: 50% 50% 0px; transform: translate3d(0px, 0px, 0px); touch-action: none; -webkit-user-select: none;">
<style>#menu{display:block;margin:0 auto;}a{cursor:pointer;outline:none;}.item .sector{transition:all .1s linear;fill:#fff;stroke:#111;}.item:hover .sector,.item:focus .sector{fill:#eee;}.menu-trigger{fill:#EA2A55;pointer-events:auto;}.menu-trigger:hover,.menu-trigger:focus{cursor:pointer;}symbol{overflow:visible;}</style>
<g id="symbolsContainer">    <symbol class="icon icon-" id="icon-1" viewBox="0 0 35 35"><!--Replace the contents of this symbol with the content of your icon--><rect fill="none" stroke="#111" stroke-width="1" width="100%" height="100%"></rect><text fill="#222" x="50%" y="50%" dy=".3em" text-anchor="middle" font-size="1.2em">1</text></symbol>

    <symbol class="icon icon-" id="icon-2" viewBox="0 0 35 35"><!--Replace the contents of this symbol with the content of your icon--><rect fill="none" stroke="#111" stroke-width="1" width="100%" height="100%"></rect><text fill="#222" x="50%" y="50%" dy=".3em" text-anchor="middle" font-size="1.2em">2</text></symbol>

    <symbol class="icon icon-" id="icon-3" viewBox="0 0 35 35"><!--Replace the contents of this symbol with the content of your icon--><rect fill="none" stroke="#111" stroke-width="1" width="100%" height="100%"></rect><text fill="#222" x="50%" y="50%" dy=".3em" text-anchor="middle" font-size="1.2em">3</text></symbol>

    <symbol class="icon icon-" id="icon-4" viewBox="0 0 35 35"><!--Replace the contents of this symbol with the content of your icon--><rect fill="none" stroke="#111" stroke-width="1" width="100%" height="100%"></rect><text fill="#222" x="50%" y="50%" dy=".3em" text-anchor="middle" font-size="1.2em">4</text></symbol>

    <symbol class="icon icon-" id="icon-5" viewBox="0 0 35 35"><!--Replace the contents of this symbol with the content of your icon--><rect fill="none" stroke="#111" stroke-width="1" width="100%" height="100%"></rect><text fill="#222" x="50%" y="50%" dy=".3em" text-anchor="middle" font-size="1.2em">5</text></symbol>

    <symbol class="icon icon-" id="icon-6" viewBox="0 0 35 35"><!--Replace the contents of this symbol with the content of your icon--><rect fill="none" stroke="#111" stroke-width="1" width="100%" height="100%"></rect><text fill="#222" x="50%" y="50%" dy=".3em" text-anchor="middle" font-size="1.2em">6</text></symbol>

    <symbol class="icon icon-" id="icon-7" viewBox="0 0 35 35"><!--Replace the contents of this symbol with the content of your icon--><rect fill="none" stroke="#111" stroke-width="1" width="100%" height="100%"></rect><text fill="#222" x="50%" y="50%" dy=".3em" text-anchor="middle" font-size="1.2em">7</text></symbol>

    <symbol class="icon icon-" id="icon-8" viewBox="0 0 35 35"><!--Replace the contents of this symbol with the content of your icon--><rect fill="none" stroke="#111" stroke-width="1" width="100%" height="100%"></rect><text fill="#222" x="50%" y="50%" dy=".3em" text-anchor="middle" font-size="1.2em">8</text></symbol>

</g>
<g id="itemsContainer">        <a class="item" id="item-1" role="link" tabindex="0" xlink:href=" " xlink:title=" " transform="matrix(1,0,0,1,0,0)" data-svg-origin="250 250" style=""><path fill="none" stroke="#111" d="M375,250 l125,0 A250,250 0 0,0 445.4578706170074,94.12754953531663 l-97.72893530850371,77.93622523234168 A125,125 0 0,1 375,250" class="sector"></path><use xlink:href="#icon-1" width="35" height="35" x="432.603271484375" y="162.48085021972656" transform="rotate(70.71428571428572 450.103271484375 179.98085021972656)"></use></a>
        <a class="item" id="item-2" role="link" tabindex="0" xlink:href=" " xlink:title=" " transform="matrix(0.7071,-0.7071,0.7071,0.7071,-103.55339059327378,249.99999999999997)" data-svg-origin="250 250" style=""><path fill="none" stroke="#111" d="M375,250 l125,0 A250,250 0 0,0 445.4578706170074,94.12754953531663 l-97.72893530850371,77.93622523234168 A125,125 0 0,1 375,250" class="sector"></path><use xlink:href="#icon-2" width="35" height="35" x="432.603271484375" y="162.48085021972656" transform="rotate(70.71428571428572 450.103271484375 179.98085021972656)"></use></a>
        <a class="item" id="item-3" role="link" tabindex="0" xlink:href=" " xlink:title=" " transform="matrix(0,-1,1,0,0,500)" data-svg-origin="250 250" style=""><path fill="none" stroke="#111" d="M375,250 l125,0 A250,250 0 0,0 445.4578706170074,94.12754953531663 l-97.72893530850371,77.93622523234168 A125,125 0 0,1 375,250" class="sector"></path><use xlink:href="#icon-3" width="35" height="35" x="432.603271484375" y="162.48085021972656" transform="rotate(70.71428571428572 450.103271484375 179.98085021972656)"></use></a>
        <a class="item" id="item-4" role="link" tabindex="0" xlink:href=" " xlink:title=" " transform="matrix(-0.7071,-0.7071,0.7071,-0.7071,249.99999999999997,603.5533905932738)" data-svg-origin="250 250" style=""><path fill="none" stroke="#111" d="M375,250 l125,0 A250,250 0 0,0 445.4578706170074,94.12754953531663 l-97.72893530850371,77.93622523234168 A125,125 0 0,1 375,250" class="sector"></path><use xlink:href="#icon-4" width="35" height="35" x="432.603271484375" y="162.48085021972656" transform="rotate(70.71428571428572 450.103271484375 179.98085021972656)"></use></a>
        <a class="item" id="item-5" role="link" tabindex="0" xlink:href=" " xlink:title=" " transform="matrix(-1,0,0,-1,500,500)" data-svg-origin="250 250" style=""><path fill="none" stroke="#111" d="M375,250 l125,0 A250,250 0 0,0 445.4578706170074,94.12754953531663 l-97.72893530850371,77.93622523234168 A125,125 0 0,1 375,250" class="sector"></path><use xlink:href="#icon-5" width="35" height="35" x="432.603271484375" y="162.48085021972656" transform="rotate(70.71428571428572 450.103271484375 179.98085021972656)"></use></a>
        <a class="item" id="item-6" role="link" tabindex="0" xlink:href=" " xlink:title=" " transform="matrix(-0.7071,0.7071,-0.7071,-0.7071,603.5533905932738,250.00000000000006)" data-svg-origin="250 250" style=""><path fill="none" stroke="#111" d="M375,250 l125,0 A250,250 0 0,0 445.4578706170074,94.12754953531663 l-97.72893530850371,77.93622523234168 A125,125 0 0,1 375,250" class="sector"></path><use xlink:href="#icon-6" width="35" height="35" x="432.603271484375" y="162.48085021972656" transform="rotate(70.71428571428572 450.103271484375 179.98085021972656)"></use></a>
        <a class="item" id="item-7" role="link" tabindex="0" xlink:href=" " xlink:title=" " transform="matrix(0,1,-1,0,500.00000000000006,0)" data-svg-origin="250 250" style=""><path fill="none" stroke="#111" d="M375,250 l125,0 A250,250 0 0,0 445.4578706170074,94.12754953531663 l-97.72893530850371,77.93622523234168 A125,125 0 0,1 375,250" class="sector"></path><use xlink:href="#icon-7" width="35" height="35" x="432.603271484375" y="162.48085021972656" transform="rotate(70.71428571428572 450.103271484375 179.98085021972656)"></use></a>
        <a class="item" id="item-8" role="link" tabindex="0" xlink:href=" " xlink:title=" " transform="matrix(0.7071,0.7071,-0.7071,0.7071,250.00000000000009,-103.55339059327378)" data-svg-origin="250 250" style=""><path fill="none" stroke="#111" d="M375,250 l125,0 A250,250 0 0,0 445.4578706170074,94.12754953531663 l-97.72893530850371,77.93622523234168 A125,125 0 0,1 375,250" class="sector"></path><use xlink:href="#icon-8" width="35" height="35" x="432.603271484375" y="162.48085021972656" transform="rotate(70.71428571428572 450.103271484375 179.98085021972656)"></use></a>
</g>
<g id="trigger" class="trigger menu-trigger" role="button">
<circle cx="250" cy="250" r="80"></circle>
 
</g>
</svg>
