<?xml version="1.0" encoding="UTF-8" standalone="no"?>
<svg width="403px" height="282px" viewBox="0 0 403 282" version="1.1" xmlns="http://www.w3.org/2000/svg" xmlns:xlink="http://www.w3.org/1999/xlink" xmlns:sketch="http://www.bohemiancoding.com/sketch/ns">
    <!-- Generator: Sketch 3.4.2 (15857) - http://www.bohemiancoding.com/sketch -->
    <title>Group</title>
    <desc>Created with Sketch.</desc>
    <defs></defs>
    <g id="Page-1" stroke="none" stroke-width="1" fill="none" fill-rule="evenodd" sketch:type="MSPage">
        <g id="About-Us-Desktop" sketch:type="MSArtboardGroup" transform="translate(-519.000000, -495.000000)">
            <g id="Group" sketch:type="MSLayerGroup" transform="translate(519.000000, 495.000000)">
                <path d="M163.410535,96.5585031 L163.410535,102.701493" id="Line-Copy-51" stroke="#F8E81C" stroke-width="2" stroke-linecap="round" sketch:type="MSShapeGroup"></path>
                <ellipse id="Oval-44" fill="#FC554A" sketch:type="MSShapeGroup" cx="292.76087" cy="79.9031108" rx="80.1086957" ry="79.9031108"></ellipse>
                <ellipse id="Oval-45" fill="#9F86AF" sketch:type="MSShapeGroup" cx="180.608696" cy="261.50109" rx="180.608696" ry="20.3389737"></ellipse>
                <rect id="Rectangle-99" fill="#FFC986" sketch:type="MSShapeGroup" x="41.4654065" y="143.25776" width="277.299331" height="115.337762"></rect>
                <rect id="Rectangle-100" fill="#65768F" sketch:type="MSShapeGroup" x="52.2667224" y="156.295942" width="41.3428094" height="63.594437"></rect>
                <rect id="Rectangle-100-Copy" fill="#ECFAFB" sketch:type="MSShapeGroup" x="58.3168896" y="163.316501" width="28.7382943" height="49.6346825"></rect>
                <rect id="Rectangle-100-Copy-4" fill="#C5E5E8" sketch:type="MSShapeGroup" x="58.3168896" y="193.378097" width="28.7382943" height="20.0852575"></rect>
                <path d="M41.6789298,233.171805 L108.73495,233.171805" id="Line" stroke="#D59256" stroke-linecap="square" sketch:type="MSShapeGroup"></path>
                <rect id="Rectangle-101" fill="#65768F" sketch:type="MSShapeGroup" x="179.320234" y="156.295942" width="125.036789" height="63.594437"></rect>
                <path d="M162.682274,231.719021 L316.457358,231.719021" id="Line-Copy-24" stroke="#D59256" stroke-linecap="square" sketch:type="MSShapeGroup"></path>
                <rect id="Rectangle-102" fill="#65768F" sketch:type="MSShapeGroup" x="108.73495" y="143.25776" width="53.4431438" height="115.337762"></rect>
                <rect id="Rectangle-100-Copy-2" fill="#ECF9FB" sketch:type="MSShapeGroup" x="187.135033" y="163.316501" width="109.911371" height="49.6346825"></rect>
                <rect id="Rectangle-100-Copy-3" fill="#C6E5E8" sketch:type="MSShapeGroup" x="187.135033" y="193.378097" width="109.911371" height="20.0852575"></rect>
                <rect id="Rectangle-103" fill="#ECF9FB" sketch:type="MSShapeGroup" x="115.440289" y="160.30769" width="40.6705686" height="36.9378005"></rect>
                <path d="M115.160189,200.926641 L155.382597,200.926641 L155.382597,249.607776 L116.321585,249.607776 L115.160189,200.926641 Z" id="Rectangle-104" fill="#C5E5E8" sketch:type="MSShapeGroup"></path>
                <rect id="Rectangle-105" fill="#FFBC66" sketch:type="MSShapeGroup" x="41.1747492" y="111.163774" width="277.299331" height="33.096923"></rect>
                <rect id="Rectangle-143" fill="#D8D8D8" sketch:type="MSShapeGroup" x="44.1998328" y="101.134403" width="274.274247" height="9.02643356"></rect>
                <path d="M58.9891304,112.66818 L58.9891304,142.756292" id="Line" stroke="#FC554A" stroke-width="2" stroke-linecap="square" sketch:type="MSShapeGroup"></path>
                <path d="M131.815217,112.66818 L131.815217,142.756292" id="Line-Copy-21" stroke="#FC554A" stroke-width="2" stroke-linecap="square" sketch:type="MSShapeGroup"></path>
                <path d="M252.706522,112.66818 L252.706522,142.756292" id="Line-Copy-25" stroke="#FC554A" stroke-width="2" stroke-linecap="square" sketch:type="MSShapeGroup"></path>
                <path d="M83.75,112.66818 L83.75,142.756292" id="Line-Copy-19" stroke="#FC554A" stroke-width="2" stroke-linecap="square" sketch:type="MSShapeGroup"></path>
                <path d="M204.641304,112.66818 L204.641304,142.756292" id="Line-Copy-26" stroke="#FC554A" stroke-width="2" stroke-linecap="square" sketch:type="MSShapeGroup"></path>
                <path d="M156.576087,112.66818 L156.576087,142.756292" id="Line-Copy-22" stroke="#FC554A" stroke-width="2" stroke-linecap="square" sketch:type="MSShapeGroup"></path>
                <path d="M277.467391,112.66818 L277.467391,142.756292" id="Line-Copy-27" stroke="#FC554A" stroke-width="2" stroke-linecap="square" sketch:type="MSShapeGroup"></path>
                <path d="M107.054348,112.66818 L107.054348,142.756292" id="Line-Copy-20" stroke="#FC554A" stroke-width="2" stroke-linecap="square" sketch:type="MSShapeGroup"></path>
                <path d="M227.945652,112.66818 L227.945652,142.756292" id="Line-Copy-28" stroke="#FC554A" stroke-width="2" stroke-linecap="square" sketch:type="MSShapeGroup"></path>
                <path d="M179.880435,112.66818 L179.880435,142.756292" id="Line-Copy-23" stroke="#FC554A" stroke-width="2" stroke-linecap="square" sketch:type="MSShapeGroup"></path>
                <path d="M300.771739,112.66818 L300.771739,142.756292" id="Line-Copy-29" stroke="#FC554A" stroke-width="2" stroke-linecap="square" sketch:type="MSShapeGroup"></path>
                <path d="M46.6086957,233.999356 L46.6086957,257.289024" id="Line" stroke="#D59256" stroke-linecap="square" sketch:type="MSShapeGroup"></path>
                <path d="M71.3695652,233.999356 L71.3695652,257.289024" id="Line-Copy-30" stroke="#D59256" stroke-linecap="square" sketch:type="MSShapeGroup"></path>
                <path d="M93.2173913,233.999356 L93.2173913,257.289024" id="Line-Copy-31" stroke="#D59256" stroke-linecap="square" sketch:type="MSShapeGroup"></path>
                <path d="M177.695652,232.908776 L177.695652,257.592585" id="Line-Copy-32" stroke="#D59256" stroke-linecap="square" sketch:type="MSShapeGroup"></path>
                <path d="M201,232.930977 L201,257.600132" id="Line-Copy-33" stroke="#D59256" stroke-linecap="square" sketch:type="MSShapeGroup"></path>
                <path d="M225.76087,232.930977 L225.76087,257.600132" id="Line-Copy-34" stroke="#D59256" stroke-linecap="square" sketch:type="MSShapeGroup"></path>
                <path d="M250.521739,232.930977 L250.521739,257.600132" id="Line-Copy-35" stroke="#D59256" stroke-linecap="square" sketch:type="MSShapeGroup"></path>
                <path d="M273.826087,232.930977 L273.826087,257.600132" id="Line-Copy-36" stroke="#D59256" stroke-linecap="square" sketch:type="MSShapeGroup"></path>
                <path d="M298.586957,232.930977 L298.586957,257.600132" id="Line-Copy-37" stroke="#D59256" stroke-linecap="square" sketch:type="MSShapeGroup"></path>
                <path d="M318.47408,143.04061 L317.73085,143.04061 L304.131013,143.04061 L290.505097,143.04061 L275.90994,143.04061 L262.284024,143.04061 L248.632027,143.04061 L235.00611,143.04061 L220.410953,143.04061 L206.785037,143.04061 L193.185201,143.04061 L179.559284,143.04061 L164.964127,143.04061 L151.338211,143.04061 L135.436961,143.04061 L121.811045,143.04061 L107.215888,143.04061 L93.5899715,143.04061 L79.9901354,143.04061 L66.364219,143.04061 L51.7690619,143.04061 L41.1747492,143.04061 C41.4369296,148.06962 45.6196861,152.067044 50.7411404,152.067044 C53.4064637,152.067044 55.8175499,150.984381 57.5540986,149.237093 C59.2906474,150.984381 61.7017335,152.067044 64.3670569,152.067044 C67.2902002,152.067044 69.9075422,150.764795 71.6646354,148.711764 C73.4217286,150.764795 76.0390706,152.067044 78.9622139,152.067044 C81.6275373,152.067044 84.0386234,150.984381 85.7751722,149.237093 C87.5117209,150.984381 89.9228071,152.067044 92.5881304,152.067044 C95.2467886,152.067044 97.6524797,150.989789 99.3880484,149.250189 C101.123617,150.989789 103.529308,152.067044 106.187966,152.067044 C108.85329,152.067044 111.264376,150.984381 113.000925,149.237093 C114.737473,150.984381 117.14856,152.067044 119.813883,152.067044 C122.737026,152.067044 125.354368,150.764795 127.111461,148.711764 C128.868555,150.764795 131.485897,152.067044 134.40904,152.067044 C137.074363,152.067044 139.485449,150.984381 141.221998,149.237093 C142.958547,150.984381 145.369633,152.067044 148.034956,152.067044 C151.346186,152.067044 154.265025,150.396061 155.985581,147.855653 C157.706137,150.396061 160.624976,152.067044 163.936206,152.067044 C166.601529,152.067044 169.012615,150.984381 170.749164,149.237093 C172.485713,150.984381 174.896799,152.067044 177.562122,152.067044 C180.485265,152.067044 183.102607,150.764795 184.859701,148.711764 C186.616794,150.764795 189.234136,152.067044 192.157279,152.067044 C194.822602,152.067044 197.233689,150.984381 198.970237,149.237093 C200.706786,150.984381 203.117872,152.067044 205.783196,152.067044 C208.441854,152.067044 210.847545,150.989789 212.583114,149.250189 C214.318682,150.989789 216.724373,152.067044 219.383032,152.067044 C222.048355,152.067044 224.459441,150.984381 226.19599,149.237093 C227.932539,150.984381 230.343625,152.067044 233.008948,152.067044 C235.932091,152.067044 238.549433,150.764795 240.306527,148.711764 C242.06362,150.764795 244.680962,152.067044 247.604105,152.067044 C250.269429,152.067044 252.680515,150.984381 254.417063,149.237093 C256.153612,150.984381 258.564698,152.067044 261.230022,152.067044 C263.902023,152.067044 266.318512,150.978948 268.05602,149.223947 C269.793529,150.978948 272.210017,152.067044 274.882018,152.067044 C277.547342,152.067044 279.958428,150.984381 281.694977,149.237093 C283.431525,150.984381 285.842612,152.067044 288.507935,152.067044 C291.431078,152.067044 294.04842,150.764795 295.805513,148.711764 C297.562607,150.764795 300.179949,152.067044 303.103092,152.067044 C305.768415,152.067044 308.179501,150.984381 309.91605,149.237093 C311.652599,150.984381 314.063685,152.067044 316.729008,152.067044 C317.324976,152.067044 317.908233,152.012914 318.47408,151.909327 L318.47408,143.04061 Z" id="Oval-8" fill="#FC554A" sketch:type="MSShapeGroup"></path>
                <path d="M231.250836,185.882585 L217.63796,197.416361" id="Line" stroke="#66A5EF" stroke-linecap="round" sketch:type="MSShapeGroup"></path>
                <path d="M231.250836,179.864963 L217.63796,191.398739" id="Line-Copy-39" stroke="#66A6F0" stroke-linecap="round" sketch:type="MSShapeGroup"></path>
                <path d="M141.506689,227.003005 L127.893813,238.536781" id="Line-Copy-41" stroke="#ECF9FB" stroke-linecap="round" sketch:type="MSShapeGroup"></path>
                <path d="M125.98913,87.5947531 L125.98913,66.5330748" id="Line" stroke="#FA2A1D" stroke-width="2" stroke-linecap="round" sketch:type="MSShapeGroup"></path>
                <path d="M126.381271,73.5536342 L134.448161,70.5448231" id="Line" stroke="#FA2A1D" stroke-width="2" stroke-linecap="round" sketch:type="MSShapeGroup"></path>
                <path d="M117.092497,80.5741937 L125.159386,77.5653825" id="Line-Copy-68" stroke="#FA2A1D" stroke-width="2" stroke-linecap="round" sketch:type="MSShapeGroup"></path>
                <path d="M125.159386,66.5330748 L120.11758,63.5242636" id="Line-Copy-70" stroke="#FA2A1D" stroke-width="2" stroke-linecap="round" sketch:type="MSShapeGroup"></path>
                <path d="M126.381271,66.0316063 L129.406355,61.016921" id="Line-Copy-71" stroke="#FA2A1D" stroke-width="2" stroke-linecap="round" sketch:type="MSShapeGroup"></path>
                <path d="M141.506689,220.985382 L127.893813,232.519159" id="Line-Copy-40" stroke="#ECF9FB" stroke-linecap="round" sketch:type="MSShapeGroup"></path>
                <ellipse id="Oval-40" fill="#66A5EF" sketch:type="MSShapeGroup" cx="233.771739" cy="183.375243" rx="1.0083612" ry="1.00293706"></ellipse>
                <ellipse id="Oval-40-Copy-2" fill="#ECF9FB" sketch:type="MSShapeGroup" cx="143.842463" cy="218.47804" rx="1.0083612" ry="1.00293706"></ellipse>
                <ellipse id="Oval-40-Copy" fill="#66A5EF" sketch:type="MSShapeGroup" cx="215.621237" cy="199.422236" rx="1.0083612" ry="1.00293706"></ellipse>
                <ellipse id="Oval-40-Copy-3" fill="#ECF9FB" sketch:type="MSShapeGroup" cx="125.691961" cy="234.525033" rx="1.0083612" ry="1.00293706"></ellipse>
                <rect id="Rectangle-144" stroke="#FDF487" stroke-width="2" fill="#FFBC66" sketch:type="MSShapeGroup" x="44.1998328" y="90.0991587" width="272.257525" height="20.0587412"></rect>
                <path d="M37.1413043,102.42126 L324.524247,102.42126" id="Line-Copy-42" stroke="#FDF487" stroke-width="3" stroke-linecap="round" sketch:type="MSShapeGroup"></path>
                <path d="M61.4540134,96.5585031 L61.4540134,102.701493" id="Line-Copy-43" stroke="#FDF487" stroke-width="2" stroke-linecap="round" sketch:type="MSShapeGroup"></path>
                <path d="M122.627926,96.5585031 L122.627926,102.701493" id="Line-Copy-49" stroke="#FDF487" stroke-width="2" stroke-linecap="round" sketch:type="MSShapeGroup"></path>
                <path d="M81.8453177,96.5585031 L81.8453177,102.701493" id="Line-Copy-45" stroke="#FDF487" stroke-width="2" stroke-linecap="round" sketch:type="MSShapeGroup"></path>
                <path d="M143.019231,96.5585031 L143.019231,102.701493" id="Line-Copy-50" stroke="#FDF487" stroke-width="2" stroke-linecap="round" sketch:type="MSShapeGroup"></path>
                <path d="M102.236622,96.5585031 L102.236622,102.701493" id="Line-Copy-47" stroke="#FDF487" stroke-width="2" stroke-linecap="round" sketch:type="MSShapeGroup"></path>
                <path d="M52.7148829,96.5585031 L52.7148829,102.701493" id="Line-Copy-44" stroke="#FDF487" stroke-width="2" stroke-linecap="round" sketch:type="MSShapeGroup"></path>
                <path d="M112.432274,96.5585031 L112.432274,102.701493" id="Line-Copy-52" stroke="#FDF487" stroke-width="2" stroke-linecap="round" sketch:type="MSShapeGroup"></path>
                <path d="M71.6496656,96.5585031 L71.6496656,102.701493" id="Line-Copy-46" stroke="#FDF487" stroke-width="2" stroke-linecap="round" sketch:type="MSShapeGroup"></path>
                <path d="M132.823579,96.5585031 L132.823579,102.701493" id="Line-Copy-53" stroke="#FDF487" stroke-width="2" stroke-linecap="round" sketch:type="MSShapeGroup"></path>
                <path d="M92.0409699,96.5585031 L92.0409699,102.701493" id="Line-Copy-48" stroke="#FDF487" stroke-width="2" stroke-linecap="round" sketch:type="MSShapeGroup"></path>
                <path d="M153.214883,96.5585031 L153.214883,102.701493" id="Line-Copy-54" stroke="#FDF487" stroke-width="2" stroke-linecap="round" sketch:type="MSShapeGroup"></path>
                <path d="M183.801839,96.5585031 L183.801839,102.701493" id="Line-Copy-66" stroke="#FDF487" stroke-width="2" stroke-linecap="round" sketch:type="MSShapeGroup"></path>
                <path d="M244.975753,96.5585031 L244.975753,102.701493" id="Line-Copy-55" stroke="#FDF487" stroke-width="2" stroke-linecap="round" sketch:type="MSShapeGroup"></path>
                <path d="M204.193144,96.5585031 L204.193144,102.701493" id="Line-Copy-56" stroke="#FDF487" stroke-width="2" stroke-linecap="round" sketch:type="MSShapeGroup"></path>
                <path d="M265.367057,96.5585031 L265.367057,102.701493" id="Line-Copy-57" stroke="#FDF487" stroke-width="2" stroke-linecap="round" sketch:type="MSShapeGroup"></path>
                <path d="M295.954013,96.5585031 L295.954013,102.701493" id="Line-Copy-67" stroke="#FDF487" stroke-width="2" stroke-linecap="round" sketch:type="MSShapeGroup"></path>
                <path d="M224.584448,96.5585031 L224.584448,102.701493" id="Line-Copy-58" stroke="#FDF487" stroke-width="2" stroke-linecap="round" sketch:type="MSShapeGroup"></path>
                <path d="M37.1413043,111.137963 L324.524247,111.137963" id="Line-Copy-38" stroke="#FC554A" stroke-width="3" stroke-linecap="round" sketch:type="MSShapeGroup"></path>
                <path d="M285.758361,96.5585031 L285.758361,102.701493" id="Line-Copy-59" stroke="#FDF487" stroke-width="2" stroke-linecap="round" sketch:type="MSShapeGroup"></path>
                <path d="M173.606187,96.5585031 L173.606187,102.701493" id="Line-Copy-60" stroke="#FDF487" stroke-width="2" stroke-linecap="round" sketch:type="MSShapeGroup"></path>
                <path d="M163.175898,96.5585031 L163.175898,102.701493" id="Line-Copy-72" stroke="#FDF487" stroke-width="2" stroke-linecap="round" sketch:type="MSShapeGroup"></path>
                <path d="M234.7801,96.5585031 L234.7801,102.701493" id="Line-Copy-61" stroke="#FDF487" stroke-width="2" stroke-linecap="round" sketch:type="MSShapeGroup"></path>
                <path d="M193.997492,96.5585031 L193.997492,102.701493" id="Line-Copy-62" stroke="#FDF487" stroke-width="2" stroke-linecap="round" sketch:type="MSShapeGroup"></path>
                <path d="M255.171405,96.5585031 L255.171405,102.701493" id="Line-Copy-63" stroke="#FDF487" stroke-width="2" stroke-linecap="round" sketch:type="MSShapeGroup"></path>
                <path d="M214.388796,96.5585031 L214.388796,102.701493" id="Line-Copy-64" stroke="#FDF487" stroke-width="2" stroke-linecap="round" sketch:type="MSShapeGroup"></path>
                <path d="M275.562709,96.5585031 L275.562709,102.701493" id="Line-Copy-65" stroke="#FDF487" stroke-width="2" stroke-linecap="round" sketch:type="MSShapeGroup"></path>
                <path d="M306.149666,96.5585031 L306.149666,102.701493" id="Line-Copy-69" stroke="#FDF487" stroke-width="2" stroke-linecap="round" sketch:type="MSShapeGroup"></path>
                <path d="M294.945652,47.9418665 L243.23913,47.9418665" id="Line" stroke="#FFFFFF" stroke-width="2" stroke-linecap="round" sketch:type="MSShapeGroup"></path>
                <path d="M344.467391,33.4140281 L311.695652,33.4140281" id="Line-Copy-3" stroke="#FFFFFF" stroke-width="2" stroke-linecap="round" sketch:type="MSShapeGroup"></path>
                <path d="M402,62.4697048 L293.281321,62.4697048" id="Line-Copy" stroke="#FFFFFF" stroke-width="2" stroke-linecap="round" sketch:type="MSShapeGroup"></path>
            </g>
        </g>
    </g>
</svg>