<?xml version="1.0" encoding="UTF-8" standalone="no"?>
<svg width="198px" height="198px" viewBox="0 0 198 198" version="1.1" xmlns="http://www.w3.org/2000/svg" xmlns:xlink="http://www.w3.org/1999/xlink" xmlns:sketch="http://www.bohemiancoding.com/sketch/ns">
    <!-- Generator: Sketch 3.4.2 (15857) - http://www.bohemiancoding.com/sketch -->
    <title>Group + Group Copy 5</title>
    <desc>Created with Sketch.</desc>
    <defs>
        <ellipse id="path-1" cx="98.7072601" cy="98.9429164" rx="98.7072601" ry="98.9429164"></ellipse>
    </defs>
    <g id="Page-1" stroke="none" stroke-width="1" fill="none" fill-rule="evenodd" sketch:type="MSPage">
        <g id="Frequently-Asked-Questions" sketch:type="MSArtboardGroup" transform="translate(-621.000000, -1277.000000)">
            <g id="Group-+-Group-Copy-5" sketch:type="MSLayerGroup" transform="translate(621.000000, 1277.000000)">
                <g id="Group">
                    <mask id="mask-2" sketch:name="Mask" fill="white">
                        <use xlink:href="#path-1"></use>
                    </mask>
                    <use id="Mask" fill="#9F86AF" sketch:type="MSShapeGroup" xlink:href="#path-1"></use>
                </g>
                <g id="Group-Copy-4" transform="translate(28.142839, 24.875000)" sketch:type="MSShapeGroup">
                    <path d="M0.0561265624,114.219915 L71.1355566,147.901631 L71.1355566,64.763291 L0.0561265624,31.0822943 L0.0561265624,114.219915" id="Fill-1" fill="#FBD054"></path>
                    <path d="M142.214987,114.219915 L71.1355566,147.901631 L71.1355566,64.763291 L142.214987,31.0822943 L142.214987,114.219915" id="Fill-2" fill="#FDDE84"></path>
                    <path d="M142.214987,31.0822943 L71.1355566,0.266847114 L0.0561265624,31.0822943 L71.1355566,64.763291 L142.214987,31.0822943" id="Fill-3" fill="#F7BF1B"></path>
                    <path d="M104.608019,94.3967114 L110.203049,91.6360472 L110.806435,88.0031628 C116.785438,83.8501946 121.612523,78.625353 121.612523,71.6269724 C121.612523,64.3005427 116.236906,62.9070068 108.338039,66.8044151 C102.359036,69.7545367 98.0804834,74.2713261 94.8989955,79.3403059 L99.9454936,82.3724547 C102.468743,78.6124062 105.101698,76.0557486 108.17348,74.5400899 C111.354967,72.9703004 113.219978,73.4716251 113.219978,75.9866681 C113.219978,78.9391099 110.532169,82.0695813 103.620661,85.7531878 L103.346394,86.1618887 L104.608019,94.3967114 Z M102.797862,99.5545056 L102.797862,108.302481 L111.684087,103.917897 L111.684087,95.1699213 L102.797862,99.5545056 Z" id="?" fill="#FC554A"></path>
                    <path d="M31.902574,94.8890721 L32.4136037,91.7171933 C37.4774438,92.1323725 41.5656816,90.5955765 41.5656816,83.5971959 C41.5656816,76.2707662 37.0128713,70.7700887 30.3230276,68.6325133 C25.2591875,67.0144875 21.6355222,68.2623275 18.9410018,70.9005499 L23.2150686,77.7883827 C25.352102,75.9561763 27.5820499,75.4111799 30.1836558,76.2424592 C32.8781762,77.1034271 34.4577227,79.0296784 34.4577227,81.5447214 C34.4577227,84.4971632 32.1813175,85.5740638 26.3277042,83.9770596 L26.095418,84.1762125 L27.1639347,93.3749562 L31.902574,94.8890721 Z M25.6308455,105.897709 L33.1569197,108.302481 L33.1569197,99.5545056 L25.6308455,97.1497333 L25.6308455,105.897709 Z" id="?-copy" fill="#FC554A"></path>
                </g>
            </g>
        </g>
    </g>
</svg>