<?xml version="1.0" encoding="utf-8"?>
<!-- Generator: Adobe Illustrator 16.0.4, SVG Export Plug-In . SVG Version: 6.00 Build 0)  -->
<!DOCTYPE svg PUBLIC "-//W3C//DTD SVG 1.1//EN" "http://www.w3.org/Graphics/SVG/1.1/DTD/svg11.dtd">
<svg version="1.1" id="Layer_1" xmlns="http://www.w3.org/2000/svg" xmlns:xlink="http://www.w3.org/1999/xlink" x="0px" y="0px"
	 width="179.11px" height="179.106px" viewBox="0 0 179.11 179.106" enable-background="new 0 0 179.11 179.106"
	 xml:space="preserve">
<g>
	<g>
		<defs>
			<rect id="SVGID_1_" x="0.555" y="0.555" width="178" height="177.997"/>
		</defs>
		<clipPath id="SVGID_2_">
			<use xlink:href="#SVGID_1_"  overflow="visible"/>
		</clipPath>
		<g clip-path="url(#SVGID_2_)">
			<defs>
				<rect id="SVGID_3_" x="-464.216" y="-145.059" width="4552.857" height="7329.241"/>
			</defs>
			<clipPath id="SVGID_4_">
				<use xlink:href="#SVGID_3_"  overflow="visible"/>
			</clipPath>
			<g clip-path="url(#SVGID_4_)" enable-background="new    ">
				<g>
					<defs>
						<rect id="SVGID_5_" x="0.555" y="0.381" width="180.216" height="180.216"/>
					</defs>
					<clipPath id="SVGID_6_">
						<use xlink:href="#SVGID_5_"  overflow="visible"/>
					</clipPath>
					<g clip-path="url(#SVGID_6_)">
						<defs>
							<path id="SVGID_7_" d="M89.552,178.551c-49.148,0-88.997-39.845-88.997-88.999c0-49.153,39.849-88.998,88.997-88.998
								c49.153,0,89.003,39.845,89.003,88.998C178.555,138.707,138.706,178.551,89.552,178.551z"/>
						</defs>
						<clipPath id="SVGID_8_">
							<use xlink:href="#SVGID_7_"  overflow="visible"/>
						</clipPath>
						<g clip-path="url(#SVGID_8_)">
							<defs>
								<rect id="SVGID_9_" x="0.555" y="0.381" width="180.216" height="180.216"/>
							</defs>
							<clipPath id="SVGID_10_">
								<use xlink:href="#SVGID_9_"  overflow="visible"/>
							</clipPath>
							<rect x="-15.254" y="-15.254" clip-path="url(#SVGID_10_)" fill="#FB4126" width="209.612" height="209.614"/>
						</g>
					</g>
				</g>
			</g>
		</g>
	</g>
	<g>
		<defs>
			<path id="SVGID_11_" d="M30.235,86.47l-7.257-35.288c-0.055-0.277,0-0.546,0.175-0.809c0.173-0.265,0.398-0.423,0.679-0.482
				L35.6,47.474c1.534-0.315,3.041-0.318,4.531-0.011c1.486,0.317,2.84,0.873,4.074,1.685c1.229,0.806,2.274,1.834,3.146,3.08
				c0.871,1.243,1.468,2.63,1.78,4.161c0.323,1.565,0.327,3.09,0.013,4.566c-0.313,1.479-0.871,2.834-1.682,4.059
				c-0.809,1.23-1.835,2.278-3.077,3.147c-1.245,0.877-2.632,1.47-4.161,1.785l-4.831,0.991c-0.347,0.075-0.486,0.284-0.413,0.63
				l2.746,13.365c0.059,0.275-0.002,0.551-0.176,0.81c-0.17,0.262-0.396,0.418-0.678,0.479l-5.35,1.104
				c-0.28,0.052-0.547-0.003-0.811-0.176C30.449,86.973,30.292,86.751,30.235,86.47z M33.221,63.008
				c0.065,0.346,0.279,0.494,0.631,0.442l4.829-0.995c1.027-0.21,1.833-0.756,2.41-1.639c0.583-0.88,0.764-1.843,0.555-2.884
				c-0.215-1.029-0.759-1.832-1.642-2.414c-0.885-0.582-1.838-0.767-2.859-0.553l-4.831,0.986c-0.344,0.075-0.483,0.297-0.406,0.661
				L33.221,63.008z"/>
		</defs>
		<clipPath id="SVGID_12_">
			<use xlink:href="#SVGID_11_"  overflow="visible"/>
		</clipPath>
		<g clip-path="url(#SVGID_12_)">
			<defs>
				<rect id="SVGID_13_" x="-464.216" y="-145.059" width="4552.857" height="7329.241"/>
			</defs>
			<clipPath id="SVGID_14_">
				<use xlink:href="#SVGID_13_"  overflow="visible"/>
			</clipPath>
			<rect x="7.15" y="31.427" clip-path="url(#SVGID_14_)" fill="#FFFFFF" width="58.039" height="71.726"/>
		</g>
	</g>
	<g>
		<defs>
			<path id="SVGID_15_" d="M53.758,75.11l4.387-35.754c0.037-0.284,0.174-0.524,0.423-0.716c0.244-0.191,0.516-0.275,0.796-0.239
				l11.932,1.461c1.551,0.195,2.979,0.676,4.292,1.445c1.312,0.766,2.419,1.729,3.32,2.89c0.905,1.156,1.574,2.469,2.001,3.922
				c0.434,1.458,0.552,2.967,0.362,4.518c-0.258,2.101-0.935,3.841-2.026,5.227c-1.089,1.383-2.682,2.615-4.786,3.68
				c-0.438,0.232-0.676,0.476-0.71,0.732c-0.029,0.255,0.021,0.598,0.147,1.024l4.157,14.255c0.126,0.43,0.084,0.796-0.122,1.112
				c-0.212,0.316-0.578,0.442-1.106,0.374l-5.579-0.683c-0.445-0.055-0.766-0.197-0.97-0.426c-0.208-0.235-0.362-0.519-0.489-0.856
				l-3.883-14.056c-0.055-0.155-0.144-0.312-0.264-0.496c-0.122-0.172-0.322-0.273-0.607-0.307l-1.427-0.177
				c-0.353-0.043-0.549,0.109-0.592,0.464L61.35,76.046c-0.034,0.281-0.172,0.518-0.421,0.713c-0.249,0.192-0.517,0.269-0.792,0.235
				l-5.427-0.664c-0.283-0.032-0.519-0.174-0.71-0.424C53.804,75.658,53.723,75.398,53.758,75.11z M64.078,53.829
				c-0.044,0.351,0.11,0.561,0.461,0.619l4.895,0.597c1.038,0.13,1.978-0.132,2.806-0.78c0.833-0.649,1.31-1.501,1.443-2.564
				c0.12-1.039-0.134-1.968-0.782-2.804c-0.647-0.833-1.494-1.31-2.534-1.44l-4.897-0.6c-0.351-0.043-0.549,0.12-0.594,0.487
				L64.078,53.829z"/>
		</defs>
		<clipPath id="SVGID_16_">
			<use xlink:href="#SVGID_15_"  overflow="visible"/>
		</clipPath>
		<g clip-path="url(#SVGID_16_)">
			<defs>
				<rect id="SVGID_17_" x="-464.216" y="-145.059" width="4552.857" height="7329.241"/>
			</defs>
			<clipPath id="SVGID_18_">
				<use xlink:href="#SVGID_17_"  overflow="visible"/>
			</clipPath>
			<rect x="37.942" y="22.584" clip-path="url(#SVGID_18_)" fill="#FFFFFF" width="59.225" height="72.284"/>
		</g>
	</g>
	<g>
		<defs>
			<path id="SVGID_19_" d="M85.022,84.793l3.826-35.825c0.026-0.277,0.167-0.517,0.41-0.719c0.244-0.193,0.51-0.277,0.795-0.247
				l5.434,0.577c0.274,0.032,0.519,0.17,0.716,0.414c0.196,0.244,0.279,0.509,0.246,0.79l-3.824,35.826
				c-0.031,0.281-0.167,0.519-0.413,0.715c-0.243,0.202-0.505,0.286-0.79,0.254l-5.435-0.583c-0.278-0.024-0.519-0.163-0.717-0.414
				C85.071,85.344,84.991,85.077,85.022,84.793"/>
		</defs>
		<clipPath id="SVGID_20_">
			<use xlink:href="#SVGID_19_"  overflow="visible"/>
		</clipPath>
		<g clip-path="url(#SVGID_20_)">
			<defs>
				<rect id="SVGID_21_" x="-464.216" y="-145.059" width="4552.857" height="7329.241"/>
			</defs>
			<clipPath id="SVGID_22_">
				<use xlink:href="#SVGID_21_"  overflow="visible"/>
			</clipPath>
			<rect x="69.208" y="32.187" clip-path="url(#SVGID_22_)" fill="#FFFFFF" width="43.06" height="70.206"/>
		</g>
	</g>
	<g>
		<defs>
			<path id="SVGID_23_" d="M105.779,91.63l-2.906-35.91c-0.021-0.286,0.066-0.546,0.27-0.78c0.207-0.244,0.444-0.374,0.729-0.396
				l6.486-0.525c0.407-0.034,0.725,0.043,0.955,0.229c0.223,0.185,0.391,0.405,0.48,0.642l9.13,20.085
				c0.086,0.175,0.191,0.24,0.313,0.192c0.118-0.047,0.174-0.167,0.16-0.359l-1.659-20.449c-0.023-0.287,0.071-0.545,0.275-0.788
				c0.201-0.24,0.446-0.37,0.727-0.397l5.441-0.439c0.283-0.022,0.551,0.068,0.783,0.272c0.249,0.204,0.375,0.447,0.396,0.73
				l2.906,35.909c0.026,0.283-0.063,0.546-0.273,0.788c-0.198,0.234-0.444,0.364-0.729,0.389l-6.42,0.518
				c-0.482,0.04-0.841-0.03-1.063-0.219c-0.231-0.186-0.391-0.385-0.475-0.589l-8.957-18.494c-0.09-0.177-0.189-0.239-0.311-0.192
				c-0.119,0.046-0.177,0.16-0.164,0.334l1.53,18.828c0.021,0.287-0.071,0.546-0.271,0.784c-0.207,0.244-0.451,0.375-0.738,0.394
				l-5.438,0.439c-0.284,0.028-0.549-0.065-0.788-0.266C105.929,92.158,105.799,91.91,105.779,91.63"/>
		</defs>
		<clipPath id="SVGID_24_">
			<use xlink:href="#SVGID_23_"  overflow="visible"/>
		</clipPath>
		<g clip-path="url(#SVGID_24_)">
			<defs>
				<rect id="SVGID_25_" x="-464.216" y="-145.059" width="4552.857" height="7329.241"/>
			</defs>
			<clipPath id="SVGID_26_">
				<use xlink:href="#SVGID_25_"  overflow="visible"/>
			</clipPath>
			<rect x="87.061" y="36.922" clip-path="url(#SVGID_26_)" fill="#FFFFFF" width="59.021" height="71.518"/>
		</g>
	</g>
	<g>
		<defs>
			<path id="SVGID_27_" d="M131.634,51.098l-0.273-5.461c-0.017-0.277,0.084-0.535,0.29-0.771c0.211-0.232,0.461-0.359,0.744-0.371
				l22.331-1.131c0.283-0.012,0.536,0.08,0.773,0.293c0.231,0.208,0.358,0.455,0.375,0.745l0.28,5.453
				c0.01,0.284-0.091,0.544-0.304,0.775c-0.207,0.232-0.454,0.355-0.739,0.374l-6.781,0.343c-0.364,0.02-0.538,0.213-0.538,0.587
				l1.465,28.879c0.018,0.276-0.072,0.541-0.28,0.771c-0.2,0.231-0.456,0.354-0.758,0.369l-5.479,0.279
				c-0.279,0.011-0.537-0.083-0.761-0.293c-0.227-0.211-0.347-0.461-0.359-0.745l-1.463-28.875c-0.02-0.355-0.218-0.53-0.588-0.53
				l-6.79,0.346c-0.28,0.013-0.541-0.08-0.778-0.281C131.774,51.649,131.651,51.398,131.634,51.098"/>
		</defs>
		<clipPath id="SVGID_28_">
			<use xlink:href="#SVGID_27_"  overflow="visible"/>
		</clipPath>
		<g clip-path="url(#SVGID_28_)">
			<defs>
				<rect id="SVGID_29_" x="-464.216" y="-145.059" width="4552.857" height="7329.241"/>
			</defs>
			<clipPath id="SVGID_30_">
				<use xlink:href="#SVGID_29_"  overflow="visible"/>
			</clipPath>
			<rect x="115.554" y="27.555" clip-path="url(#SVGID_30_)" fill="#FFFFFF" width="56.407" height="70.485"/>
		</g>
	</g>
	<g>
		<defs>
			<path id="SVGID_31_" d="M31.026,122.536l0.091-1.624c0.018-0.287,0.139-0.531,0.375-0.742c0.233-0.207,0.49-0.305,0.772-0.29
				l5.468,0.339c0.28,0.019,0.527,0.139,0.737,0.366c0.202,0.224,0.301,0.49,0.284,0.79l-0.099,1.627
				c-0.072,1.272,0.325,2.362,1.189,3.27c0.872,0.905,2.166,1.407,3.887,1.511c1.627,0.095,2.949-0.254,3.982-1.053
				c1.033-0.792,1.585-1.831,1.665-3.106c0.067-1.17-0.312-2.103-1.127-2.783c-0.822-0.683-2.248-1.327-4.269-1.926
				c-1.677-0.457-3.246-1.031-4.707-1.722c-1.463-0.696-2.708-1.525-3.737-2.492c-1.03-0.97-1.822-2.125-2.385-3.462
				c-0.561-1.33-0.793-2.87-0.688-4.608c0.089-1.595,0.492-3.066,1.195-4.425c0.7-1.362,1.641-2.522,2.817-3.492
				c1.18-0.967,2.537-1.704,4.076-2.205c1.544-0.502,3.224-0.703,5.052-0.592c1.796,0.102,3.442,0.504,4.945,1.185
				c1.497,0.686,2.769,1.579,3.812,2.681c1.037,1.102,1.826,2.372,2.364,3.807c0.535,1.438,0.756,2.958,0.661,4.55l-0.049,0.824
				c-0.017,0.287-0.144,0.534-0.378,0.741c-0.23,0.21-0.489,0.306-0.772,0.291l-5.468-0.323c-0.282-0.015-0.527-0.146-0.733-0.382
				c-0.209-0.237-0.3-0.5-0.282-0.783l0.05-0.834c0.062-1.093-0.296-2.078-1.079-2.961c-0.781-0.876-1.951-1.366-3.506-1.457
				c-1.522-0.091-2.71,0.207-3.57,0.891c-0.853,0.676-1.316,1.569-1.377,2.674c-0.066,1.046,0.337,1.918,1.2,2.609
				c0.866,0.692,1.998,1.223,3.395,1.591c1.854,0.522,3.571,1.123,5.158,1.815c1.587,0.691,2.934,1.556,4.037,2.595
				c1.096,1.039,1.948,2.268,2.544,3.691c0.587,1.426,0.831,3.085,0.716,4.964c-0.104,1.776-0.527,3.37-1.268,4.786
				c-0.742,1.419-1.735,2.622-2.971,3.61c-1.242,0.985-2.699,1.723-4.37,2.207c-1.68,0.492-3.471,0.683-5.38,0.569
				c-1.88-0.111-3.591-0.526-5.141-1.239c-1.556-0.72-2.867-1.643-3.941-2.786c-1.083-1.135-1.907-2.457-2.477-3.951
				C31.157,125.786,30.921,124.202,31.026,122.536"/>
		</defs>
		<clipPath id="SVGID_32_">
			<use xlink:href="#SVGID_31_"  overflow="visible"/>
		</clipPath>
		<g clip-path="url(#SVGID_32_)">
			<defs>
				<rect id="SVGID_33_" x="-464.216" y="-145.059" width="4552.857" height="7329.241"/>
			</defs>
			<clipPath id="SVGID_34_">
				<use xlink:href="#SVGID_33_"  overflow="visible"/>
			</clipPath>
			<rect x="15.194" y="80.077" clip-path="url(#SVGID_34_)" fill="#FFFFFF" width="58.026" height="71.021"/>
		</g>
	</g>
	<g>
		<defs>
			<path id="SVGID_35_" d="M63.618,127.432l2.807-35.913c0.025-0.283,0.158-0.531,0.395-0.738c0.239-0.2,0.504-0.293,0.783-0.268
				l5.443,0.425c0.288,0.019,0.528,0.155,0.73,0.389c0.208,0.242,0.297,0.501,0.276,0.785l-1.066,13.601
				c-0.026,0.358,0.137,0.556,0.49,0.603l8.288,0.648c0.352,0.027,0.542-0.143,0.576-0.515l1.064-13.602
				c0.02-0.284,0.148-0.527,0.386-0.734c0.246-0.204,0.504-0.29,0.791-0.269l5.439,0.427c0.284,0.018,0.53,0.15,0.732,0.387
				c0.204,0.242,0.297,0.504,0.271,0.785l-2.812,35.915c-0.017,0.287-0.147,0.527-0.395,0.734c-0.231,0.201-0.493,0.296-0.779,0.269
				l-5.44-0.426c-0.285-0.021-0.53-0.152-0.736-0.389c-0.204-0.238-0.292-0.5-0.268-0.785l1.059-13.6
				c0.034-0.355-0.128-0.547-0.483-0.575l-8.291-0.648c-0.357-0.025-0.542,0.133-0.575,0.49l-1.06,13.601
				c-0.026,0.285-0.2,0.526-0.528,0.723c-0.33,0.195-0.634,0.279-0.916,0.264l-5.185-0.407c-0.273-0.02-0.519-0.156-0.728-0.391
				C63.682,127.976,63.595,127.714,63.618,127.432"/>
		</defs>
		<clipPath id="SVGID_36_">
			<use xlink:href="#SVGID_35_"  overflow="visible"/>
		</clipPath>
		<g clip-path="url(#SVGID_36_)">
			<defs>
				<rect id="SVGID_37_" x="-464.216" y="-145.059" width="4552.857" height="7329.241"/>
			</defs>
			<clipPath id="SVGID_38_">
				<use xlink:href="#SVGID_37_"  overflow="visible"/>
			</clipPath>
			<rect x="47.805" y="74.7" clip-path="url(#SVGID_38_)" fill="#FFFFFF" width="59.032" height="71.473"/>
		</g>
	</g>
	<g>
		<defs>
			<path id="SVGID_39_" d="M96.453,126.754c-0.253-1.289-0.468-2.607-0.648-3.953c-0.18-1.343-0.319-2.659-0.417-3.945
				c-0.106-1.282-0.153-2.518-0.153-3.699c-0.036-1.641,0.177-3.23,0.651-4.76c0.474-1.536,1.182-2.919,2.126-4.156
				c0.942-1.238,2.12-2.277,3.539-3.109c1.415-0.833,3.055-1.375,4.917-1.624c1.856-0.244,3.582-0.152,5.157,0.277
				c1.576,0.439,2.981,1.125,4.228,2.073c1.241,0.944,2.296,2.093,3.154,3.445c0.857,1.352,1.485,2.828,1.879,4.423
				c0.298,1.143,0.555,2.347,0.795,3.617c0.229,1.268,0.437,2.574,0.614,3.917c0.181,1.344,0.327,2.665,0.45,3.964
				c0.12,1.303,0.174,2.525,0.17,3.674c0.044,1.642-0.177,3.23-0.647,4.762c-0.478,1.531-1.188,2.924-2.139,4.164
				c-0.952,1.25-2.131,2.294-3.536,3.126c-1.408,0.831-3.041,1.374-4.899,1.621c-1.859,0.254-3.586,0.16-5.175-0.277
				c-1.586-0.428-2.999-1.128-4.233-2.077c-1.234-0.953-2.28-2.115-3.138-3.464c-0.861-1.355-1.489-2.828-1.876-4.423
				C96.977,129.241,96.706,128.046,96.453,126.754 M102.961,117.836c0.102,1.288,0.241,2.607,0.423,3.952
				c0.18,1.344,0.393,2.663,0.637,3.953c0.247,1.29,0.51,2.492,0.801,3.603c0.304,1.189,0.941,2.146,1.912,2.876
				c0.969,0.736,2.281,0.995,3.939,0.773c1.66-0.226,2.858-0.816,3.593-1.775c0.727-0.96,1.098-2.057,1.095-3.278
				c-0.007-1.137-0.07-2.362-0.194-3.676c-0.12-1.317-0.27-2.642-0.451-3.994c-0.177-1.344-0.383-2.649-0.609-3.924
				c-0.224-1.276-0.48-2.485-0.778-3.638c-0.304-1.185-0.942-2.136-1.906-2.862c-0.965-0.724-2.283-0.975-3.946-0.756
				c-1.659,0.218-2.851,0.812-3.586,1.772c-0.734,0.967-1.101,2.05-1.101,3.256C102.804,115.3,102.862,116.542,102.961,117.836"/>
		</defs>
		<clipPath id="SVGID_40_">
			<use xlink:href="#SVGID_39_"  overflow="visible"/>
		</clipPath>
		<g clip-path="url(#SVGID_40_)">
			<defs>
				<rect id="SVGID_41_" x="-464.216" y="-145.059" width="4552.857" height="7329.241"/>
			</defs>
			<clipPath id="SVGID_42_">
				<use xlink:href="#SVGID_41_"  overflow="visible"/>
			</clipPath>
			<rect x="79.423" y="85.566" clip-path="url(#SVGID_42_)" fill="#FFFFFF" width="59.305" height="70.953"/>
		</g>
	</g>
	<g>
		<defs>
			<path id="SVGID_43_" d="M127.385,134.327l3.959-35.81c0.037-0.28,0.174-0.519,0.415-0.716c0.246-0.201,0.51-0.281,0.797-0.25
				l11.944,1.322c1.552,0.17,2.988,0.637,4.311,1.387c1.318,0.757,2.437,1.705,3.357,2.853c0.915,1.148,1.6,2.445,2.05,3.902
				c0.447,1.449,0.587,2.947,0.408,4.505c-0.174,1.587-0.639,3.038-1.391,4.35c-0.754,1.309-1.705,2.423-2.847,3.343
				c-1.148,0.92-2.451,1.606-3.904,2.052c-1.45,0.447-2.949,0.583-4.509,0.409l-4.896-0.542c-0.355-0.033-0.552,0.12-0.59,0.476
				l-1.501,13.56c-0.034,0.282-0.166,0.528-0.414,0.716c-0.247,0.199-0.507,0.283-0.791,0.251l-5.432-0.599
				c-0.28-0.034-0.523-0.168-0.717-0.414C127.442,134.87,127.36,134.607,127.385,134.327z M137.446,112.918
				c-0.032,0.352,0.121,0.559,0.469,0.616l4.903,0.538c1.042,0.118,1.973-0.154,2.798-0.811c0.829-0.665,1.292-1.523,1.412-2.584
				c0.109-1.038-0.161-1.969-0.818-2.797c-0.658-0.818-1.509-1.29-2.553-1.406l-4.9-0.542c-0.355-0.036-0.549,0.128-0.588,0.502
				L137.446,112.918z"/>
		</defs>
		<clipPath id="SVGID_44_">
			<use xlink:href="#SVGID_43_"  overflow="visible"/>
		</clipPath>
		<g clip-path="url(#SVGID_44_)">
			<defs>
				<rect id="SVGID_45_" x="-464.216" y="-145.059" width="4552.857" height="7329.241"/>
			</defs>
			<clipPath id="SVGID_46_">
				<use xlink:href="#SVGID_45_"  overflow="visible"/>
			</clipPath>
			<rect x="111.576" y="81.737" clip-path="url(#SVGID_46_)" fill="#FFFFFF" width="58.938" height="70.21"/>
		</g>
	</g>
</g>
</svg>
