<?xml version="1.0" encoding="UTF-8" standalone="no"?>
<svg width="192px" height="37px" viewBox="0 0 192 37" version="1.1" xmlns="http://www.w3.org/2000/svg" xmlns:xlink="http://www.w3.org/1999/xlink" xmlns:sketch="http://www.bohemiancoding.com/sketch/ns">
    <!-- Generator: Sketch 3.4.2 (15857) - http://www.bohemiancoding.com/sketch -->
    <title>Imported Layers Copy 3</title>
    <desc>Created with Sketch.</desc>
    <defs>
        <path id="path-1" d="M0.0480986667,8.54602881 C0.0480986667,3.43911523 3.22261067,0 8.36427662,0 L16.8043698,0 L16.8043698,8.67337302 C16.8068155,13.7663198 13.2320247,16.8858422 8.32433027,16.8858422 L0.0480986667,16.8858422 L0.0480986667,8.54602881"></path>
        <path id="path-3" d="M16.9657856,8.86397854 C16.9657856,13.9766432 13.7863823,17.4215094 8.63982491,17.4215094 L0.186688045,17.4215094 L0.186688045,8.73745591 C0.186688045,3.63711493 3.76555494,0.513484715 8.6781408,0.513484715 L16.9657856,0.513484715 L16.9657856,8.86397854"></path>
        <path id="path-5" d="M9.85941145,0.533202528 C15.3989104,0.533202528 19.1310409,4.03229277 19.1310409,9.69869929 L19.1310409,18.9989345 L9.72082207,18.9989345 C4.19436678,18.9989345 0.810340249,15.0603013 0.810340249,9.65515579 L0.810340249,8.79743092 L0.873928317,8.79743092 C5.87048303,8.7982525 8.9691785,5.475801 9.00994008,0.534845679 L9.85941145,0.533202528"></path>
        <path id="path-7" d="M10.4357802,18.5076323 L9.58712408,18.5076323 C4.04680986,18.5076323 0.316309876,15.0110068 0.316309876,9.34542181 L0.316309876,0.0451866549 L9.72408299,0.0451866549 C15.2521687,0.0451866549 18.6345648,3.98299824 18.6345648,9.39060847 L18.6345648,10.2458686 C13.8833948,10.2894121 10.4357802,13.3333495 10.4357802,18.2833422 L10.4357802,18.5076323"></path>
        <path id="path-9" d="M0.786698532,5.31148589 C0.786698532,2.43514991 3.09869546,0.101875367 5.95282143,0.0944811875 L6.49332001,0.0944811875 L6.49332001,5.30491329 L5.95282143,5.30491329 L0.786698532,5.31148589"></path>
        <path id="path-11" d="M6.43625379,0.584140212 C6.43625379,3.22386243 4.31502107,5.3648883 1.69731227,5.37063933 L0.738599865,5.37063933 L0.738599865,0.591534392 L1.69486658,0.591534392 L6.43625379,0.584140212"></path>
    </defs>
    <g id="Page-1" stroke="none" stroke-width="1" fill="none" fill-rule="evenodd" sketch:type="MSPage">
        <g id="Frequently-Asked-Questions" sketch:type="MSArtboardGroup" transform="translate(-140.000000, -55.000000)">
            <g id="Rectangle-528-+-Group-Copy-2-+-Line" sketch:type="MSLayerGroup">
                <g id="Group-Copy-2-+-Line">
                    <g id="Group-Copy-2">
                        <g id="Group" transform="translate(140.000000, 54.000000)">
                            <g id="Imported-Layers-Copy-3">
                                <g id="Imported-Layers-Copy">
                                    <text id="Printshop" sketch:type="MSTextLayer" font-family="Circular Std" font-size="29.4055638" font-weight="bold" letter-spacing="-0.4368324" fill="#000000">
                                        <tspan x="60.9256066" y="29.8215755">P</tspan>
                                        <tspan x="77.9556791" y="29.8215755" letter-spacing="0.1092081">r</tspan>
                                        <tspan x="89.6506794" y="29.8215755">in</tspan>
                                        <tspan x="114.910059" y="29.8215755" letter-spacing="0.5096378">t</tspan>
                                        <tspan x="126.79965" y="29.8215755">shop</tspan>
                                    </text>
                                    <path d="M32.6573642,10.1891799 C32.6573642,5.08226631 35.8318762,1.64315109 40.9735422,1.64315109 L49.4136354,1.64315109 L49.4136354,10.3165241 C49.416081,15.4094709 45.8412903,18.5289932 40.9335958,18.5289932 L32.6573642,18.5289932 L32.6573642,10.1891799" id="Fill-1" fill="#652D90" sketch:type="MSShapeGroup"></path>
                                    <g id="Group-4" transform="translate(32.609266, 1.643151)">
                                        <mask id="mask-2" sketch:name="Clip 3" fill="white">
                                            <use xlink:href="#path-1"></use>
                                        </mask>
                                        <g id="Clip-3"></g>
                                        <path d="M-9.86104191,21.4332628 C-9.7371267,21.152284 -9.60587441,20.8622678 -9.47869827,20.5878616 C-10.723557,21.5795032 -12.5912527,22.7346384 -14.7940086,23.8396576 C-15.5701091,24.4517313 -16.1831633,25.2560538 -16.4888751,26.1655379 C-16.907089,27.4356937 -17.8217789,28.5415344 -19.124519,29.1511434 C-21.6191278,30.3227102 -24.5833101,29.2365873 -25.7482761,26.7217446 C-26.9107964,24.2093665 -25.828984,21.2188316 -23.3368209,20.0464433 C-22.0463092,19.4409421 -20.6310671,19.4376558 -19.4049587,19.9248501 C-18.1649914,20.4235464 -16.7342599,20.3569988 -15.439672,19.7490329 L-15.4820641,19.7736802 C-13.6885545,19.0391917 -12.0483084,18.504346 -10.7512749,18.2200808 C-11.2241092,18.0984877 -11.7352594,17.9497825 -12.2692362,17.7682143 C-12.7559295,17.7090608 -13.2556665,17.7731437 -13.6820326,17.9859318 C-14.2755212,18.2899148 -14.985588,18.3507113 -15.661415,18.1042387 C-16.9551876,17.6277249 -17.6204167,16.1875029 -17.1508432,14.8844841 C-16.682085,13.5814653 -15.2505383,12.9077734 -13.9575809,13.3818225 C-13.2874605,13.6282951 -12.7869083,14.1327425 -12.5227732,14.74153 C-12.2602686,15.3593548 -11.7319985,15.8457275 -11.0594324,16.0913786 C-10.779808,16.2146149 -10.491216,16.3444239 -10.2213743,16.475876 C-11.2053589,15.2196869 -12.3491289,13.3374574 -13.4480611,11.120025 C-14.0545935,10.3387066 -14.8527052,9.71923868 -15.7551667,9.41114785 C-17.0146995,8.99132275 -18.1120013,8.06622869 -18.7193489,6.7558157 C-19.8826845,4.24261611 -18.804133,1.2529027 -16.3095242,0.0821575544 C-13.8124697,-1.09105232 -10.846657,-0.00492945326 -9.68413664,2.51073486 C-9.08412616,3.81046737 -9.08168046,5.23754409 -9.56266713,6.47401529 C-10.058328,7.72116696 -9.99310943,9.16221046 -9.39065325,10.4685156 L-9.41347974,10.4257937 C-8.68384742,12.2324383 -8.15394686,13.8846267 -7.87024625,15.192575 C-7.75203766,14.7168827 -7.6012198,14.2009333 -7.42268408,13.665266 C-7.3639874,13.1723207 -7.43083639,12.670338 -7.64035092,12.2381893 C-7.94035617,11.6417255 -8.00068331,10.9228469 -7.75611382,10.2442255 C-7.2840947,8.94284979 -5.8541784,8.26915785 -4.56285149,8.74320694 C-3.26989411,9.21725603 -2.60140416,10.6591211 -3.07260805,11.9629615 C-3.31473185,12.637475 -3.81528407,13.1419224 -4.42018595,13.4064697 C-5.03324014,13.6718386 -5.5166725,14.2042196 -5.7587963,14.8811978 C-5.88189628,15.1638198 -6.01233334,15.4530144 -6.14113994,15.7274206 C-4.8930203,14.735779 -3.02777031,13.5814653 -0.826644882,12.4764462 C-0.0489138984,11.8627293 0.563325063,11.0592284 0.869036927,10.152209 C1.28806599,8.88041005 2.20194066,7.77456937 3.50468082,7.16496032 C6.00010487,5.99257202 8.96265664,7.07787331 10.1284379,9.59271605 C11.2925887,12.1059156 10.2115915,15.095629 7.71779793,16.2688389 C6.42810148,16.8751617 5.01041366,16.8759832 3.78430527,16.3896105 C2.54596841,15.8925573 1.11605211,15.9566402 -0.180166192,16.5654277 L-0.138589379,16.541602 C-1.93046852,17.2760905 -3.57152981,17.8101146 -4.86774812,18.0952014 C-4.39491377,18.2167945 -3.8829483,18.3663213 -3.34978681,18.5462463 C-2.86309352,18.6070429 -2.36417175,18.5404953 -1.93780561,18.3285288 C-1.34431697,18.0245459 -0.63180452,17.9637493 0.0423920452,18.2110435 C1.33697989,18.6859142 2.00302414,20.1286008 1.53018979,21.4299765 C1.06224683,22.7346384 -0.366039006,23.4066872 -1.66225731,22.9318166 C-2.33156249,22.6861655 -2.83129948,22.1817181 -3.09543453,21.5745738 C-3.35875435,20.956749 -3.88783969,20.4703762 -4.55714486,20.223082 C-4.83839978,20.1014888 -5.12536132,19.9700367 -5.39764868,19.8394062 C-4.41529456,21.0947737 -3.26989411,22.9770032 -2.17014662,25.1952572 C-1.56442952,25.9773971 -0.765502509,26.5976867 0.135328452,26.9041343 C1.39486133,27.3256026 2.49379358,28.2482319 3.10032592,29.5594665 C4.26447671,32.0734877 3.18347955,35.0632011 0.689685967,36.2355894 C-1.80655331,37.4087992 -4.77155078,36.3202116 -5.93570157,33.8053689 C-6.53571205,32.5048148 -6.53815775,31.0777381 -6.05635585,29.8412669 C-5.56069501,28.5941152 -5.62672877,27.1522501 -6.23000019,25.8467666 L-6.20472801,25.888667 C-6.93436032,24.0836655 -7.46507612,22.4314771 -7.74877673,21.125172 C-7.86780055,21.599221 -8.01943364,22.1151705 -8.19552367,22.6508377 C-8.25585081,23.1437831 -8.18900182,23.6474089 -7.97948729,24.0762713 C-7.67866681,24.6743783 -7.61752444,25.3916138 -7.86372439,26.0702352 C-8.33574351,27.373254 -9.76321411,28.0461243 -11.057802,27.5712537 C-12.3491289,27.0988477 -13.0168036,25.6545179 -12.5472302,24.3539638 C-12.3034759,23.6778072 -11.8029237,23.1733598 -11.1980218,22.909634 C-10.5865981,22.6418004 -10.1039809,22.1094195 -9.86104191,21.4332628" id="Fill-2" fill="#8763A9" sketch:type="MSShapeGroup" mask="url(#mask-2)"></path>
                                    </g>
                                    <path d="M16.9657856,29.4033671 C16.9657856,34.5160317 13.7863823,37.960898 8.63982491,37.960898 L0.186688045,37.960898 L0.186688045,29.2768445 C0.186688045,24.1765035 3.76555494,21.0528733 8.6781408,21.0528733 L16.9657856,21.0528733 L16.9657856,29.4033671" id="Fill-5" fill="#0066B2" sketch:type="MSShapeGroup"></path>
                                    <g id="Group-8" transform="translate(0.000000, 20.539389)">
                                        <mask id="mask-4" sketch:name="Clip 7" fill="white">
                                            <use xlink:href="#path-3"></use>
                                        </mask>
                                        <g id="Clip-7"></g>
                                        <path d="M22.7482237,2.53702528 C22.8721389,2.25604644 23.0033912,1.96603028 23.1305673,1.69162404 C21.8857086,2.68326573 20.0180129,3.83840094 17.815257,4.94342005 C17.0391565,5.55549383 16.4261023,6.35981628 16.1203904,7.26930041 C15.7021766,8.5394562 14.7874867,9.64529688 13.4847465,10.2549059 C10.9901377,11.4264727 8.02595549,10.3403498 6.86098948,7.82550705 C5.69846916,5.31312904 6.78028154,2.32259406 9.27244467,1.15020576 C10.5629564,0.544704586 11.9781985,0.541418283 13.2043069,1.02861258 C14.4442742,1.52730894 15.8750057,1.46076132 17.1695936,0.852795414 L17.1272015,0.877442681 C18.9207111,0.142954145 20.5609572,-0.391891534 21.8579907,-0.676156673 C21.3851564,-0.797749853 20.8740061,-0.946455026 20.3400294,-1.12802322 C19.8533361,-1.18717666 19.3535991,-1.12309377 18.927233,-0.910305703 C18.3337443,-0.606322751 17.6236776,-0.545526161 16.9478505,-0.791998824 C15.6540779,-1.26851264 14.9888489,-2.70873457 15.4584223,-4.01175338 C15.9271805,-5.31477219 17.3587273,-5.98846414 18.6516847,-5.51441505 C19.3218051,-5.26794239 19.8223573,-4.763495 20.0864924,-4.15470752 C20.3489969,-3.53688272 20.8772671,-3.05050999 21.5498332,-2.80485891 C21.8294576,-2.68162257 22.1180496,-2.55181364 22.3878913,-2.42036155 C21.4039067,-3.67655056 20.2601367,-5.55878013 19.1612045,-7.77621252 C18.5546721,-8.55753086 17.7565603,-9.17699882 16.8540989,-9.48508965 C15.594566,-9.90491476 14.4972642,-10.8300088 13.8899167,-12.1404218 C12.7265811,-14.6536214 13.8051326,-17.6433348 16.2997414,-18.81408 C18.7967959,-19.9872898 21.7626086,-18.901167 22.9251289,-16.3855026 C23.5251394,-15.0857701 23.5275851,-13.6586934 23.0465984,-12.4222222 C22.5509376,-11.1750705 22.6161561,-9.73402704 23.2186123,-8.42772193 L23.1957858,-8.47044386 C23.9254182,-6.66379924 24.4553187,-5.01161082 24.7390193,-3.70366255 C24.8572279,-4.17935479 25.0080458,-4.69530423 25.1865815,-5.23097149 C25.2452782,-5.72391681 25.1784292,-6.22589947 24.9689146,-6.65804821 C24.6689094,-7.25451205 24.6085823,-7.97339065 24.8531518,-8.65201205 C25.3251709,-9.95338771 26.7550872,-10.6270797 28.0464141,-10.1530306 C29.3393715,-9.67898148 30.0078614,-8.2371164 29.5366575,-6.93327601 C29.2945337,-6.25876249 28.7939815,-5.75431511 28.1890796,-5.48976778 C27.5760254,-5.22439888 27.0925931,-4.69201793 26.8504693,-4.01503968 C26.7273693,-3.7324177 26.5969322,-3.4432231 26.4681256,-3.16881687 C27.7162453,-4.16045855 29.5814953,-5.31477219 31.7826207,-6.4197913 C32.5603517,-7.03350823 33.1725906,-7.83700911 33.4783025,-8.74402851 C33.8973316,-10.0158275 34.8112062,-11.1216681 36.1139464,-11.7312772 C38.6093704,-12.9036655 41.5719222,-11.8183642 42.7377035,-9.30352146 C43.9018542,-6.79032187 42.8208571,-3.80060847 40.3270635,-2.62739859 C39.037367,-2.02107584 37.6196792,-2.02025426 36.3935708,-2.50662698 C35.155234,-3.00368019 33.7253177,-2.9395973 32.4290994,-2.33080982 L32.4706762,-2.35463551 C30.678797,-1.62014697 29.0377358,-1.08612287 27.7415175,-0.801036155 C28.2143518,-0.679442975 28.7263173,-0.529916226 29.2594788,-0.349991182 C29.7461721,-0.289194591 30.2450938,-0.35574221 30.67146,-0.567708701 C31.2649486,-0.871691652 31.9774611,-0.932488242 32.6516576,-0.685194004 C33.9462455,-0.210323339 34.6122897,1.23236332 34.1394554,2.53373898 C33.6715124,3.83840094 32.2432266,4.51044974 30.9470083,4.03557907 C30.2777031,3.78992798 29.7779661,3.2854806 29.513831,2.67833627 C29.2505112,2.06051146 28.7214259,1.57413874 28.0521207,1.3268445 C27.7708658,1.20525132 27.4839043,1.07379924 27.2116169,0.943168724 C28.193971,2.19853616 29.3393715,4.08076573 30.4391189,6.29901969 C31.0448361,7.08115961 31.8437631,7.70144915 32.744594,8.00789683 C34.0041269,8.42936508 35.1030592,9.35199442 35.7095915,10.663229 C36.8737423,13.1772501 35.7927451,16.1669636 33.2989515,17.3393519 C30.8027123,18.5125617 27.8377148,17.4239741 26.673564,14.9091314 C26.0735535,13.6085773 26.0711078,12.1815006 26.5529097,10.9450294 C27.0485706,9.69787772 26.9825368,8.25601264 26.3792654,6.9505291 L26.4045376,6.99242945 C25.6749052,5.18742798 25.1441895,3.53523956 24.8604888,2.22893445 C24.741465,2.70298354 24.5898319,3.21893298 24.4137419,3.75460024 C24.3534148,4.24754556 24.4202638,4.75117137 24.6297783,5.1800338 C24.9305988,5.7781408 24.9917411,6.49537625 24.7455412,7.17399765 C24.2735221,8.47701646 22.8460515,9.14988683 21.5514636,8.67501617 C20.2601367,8.20261023 19.592462,6.75828042 20.0620354,5.45772634 C20.3057897,4.78156966 20.8063419,4.27712228 21.4112438,4.01339653 C22.0226675,3.7455629 22.5052846,3.21318195 22.7482237,2.53702528" id="Fill-6" fill="#5184C3" sketch:type="MSShapeGroup" mask="url(#mask-4)"></path>
                                    </g>
                                    <path d="M31.7638704,19.7046678 C31.7638704,23.9415329 29.1282265,26.7989727 24.8613041,26.7989727 L17.8584643,26.7989727 L17.8584643,19.5986846 C17.8568338,15.3725 20.8226465,12.784537 24.8947286,12.784537 L31.7638704,12.784537 L31.7638704,19.7046678" id="Fill-9" fill="#EC1C24" sketch:type="MSShapeGroup"></path>
                                    <path d="M33.501129,19.42944 C39.040628,19.42944 42.7727584,22.9285303 42.7727584,28.5949368 L42.7727584,37.895172 L33.3625396,37.895172 C27.8360843,37.895172 24.4520578,33.9565388 24.4520578,28.5513933 L24.4520578,27.6936684 L24.5156459,27.6936684 C29.5122006,27.69449 32.610896,24.3720385 32.6516576,19.4310832 L33.501129,19.42944" id="Fill-10" fill="#FFCB31" sketch:type="MSShapeGroup"></path>
                                    <g id="Group-13" transform="translate(23.641718, 18.896238)">
                                        <mask id="mask-6" sketch:name="Clip 12" fill="white">
                                            <use xlink:href="#path-5"></use>
                                        </mask>
                                        <g id="Clip-12"></g>
                                        <path d="M-0.893493877,4.18017637 C-0.769578667,3.89919753 -0.638326374,3.60918136 -0.511150238,3.33477513 C-1.75600895,4.32641681 -3.62370464,5.48155203 -5.82646053,6.58657113 C-6.60256105,7.19864491 -7.21561524,8.00296737 -7.5213271,8.9124515 C-7.93954094,10.1826073 -8.85423083,11.288448 -10.156971,11.898057 C-12.6515798,13.0696238 -15.6157621,11.9835009 -16.7807281,9.46865814 C-17.9432484,6.95628013 -16.861436,3.96574515 -14.3692729,2.79335685 C-13.0787612,2.18785567 -11.6635191,2.18456937 -10.4374107,2.67176367 C-9.19744335,3.17046002 -7.76671183,3.1039124 -6.47212398,2.4959465 L-6.51451603,2.52059377 C-4.72100642,1.78610523 -3.08076036,1.25125955 -1.78372683,0.966994415 C-2.25656118,0.845401235 -2.76771142,0.696696061 -3.30168814,0.515127866 C-3.78838143,0.455974427 -4.28811842,0.520057319 -4.71448457,0.732845385 C-5.3079732,1.03682834 -6.01803996,1.09762493 -6.69386699,0.851152263 C-7.9876396,0.374638448 -8.65286862,-1.06558348 -8.1832952,-2.36860229 C-7.714537,-3.67162111 -6.28299024,-4.34531305 -4.99003286,-3.87126396 C-4.31991246,-3.6247913 -3.81936023,-3.12034392 -3.55522518,-2.51155644 C-3.29272059,-1.89373163 -2.76445049,-1.40735891 -2.09188439,-1.16170782 C-1.81225993,-1.03847149 -1.52366793,-0.908662551 -1.25382626,-0.777210464 C-2.23781085,-2.03339947 -3.38158084,-3.91562904 -4.48051309,-6.13306143 C-5.08704543,-6.91437978 -5.8851572,-7.53384774 -6.78761863,-7.84193857 C-8.04715151,-8.26176367 -9.1444533,-9.18685773 -9.75180087,-10.4972707 C-10.9151364,-13.0104703 -9.83658496,-16.0001837 -7.34197614,-17.1709289 C-4.84492163,-18.3441387 -1.87910893,-17.2580159 -0.716588611,-14.7423516 C-0.116578124,-13.442619 -0.11413243,-12.0155423 -0.595119097,-10.7790711 C-1.09077993,-9.53191946 -1.0255614,-8.09087596 -0.423105221,-6.78457084 L-0.445931707,-6.82729277 C0.28370061,-5.02064815 0.813601176,-3.36845973 1.09730179,-2.06051146 C1.21551037,-2.5362037 1.36632823,-3.05215315 1.54486396,-3.5878204 C1.60356063,-4.08076573 1.53671164,-4.58274838 1.32719711,-5.01489712 C1.02719187,-5.61136096 0.966864724,-6.33023956 1.21143422,-7.00886096 C1.68345334,-8.31023663 3.11336963,-8.98392857 4.40469655,-8.50987948 C5.69765393,-8.03583039 6.36614387,-6.59396531 5.89493998,-5.29012493 C5.65281619,-4.61561141 5.15226396,-4.11116402 4.54736208,-3.8466167 C3.93430789,-3.5812478 3.45087553,-3.04886684 3.20875173,-2.37188859 C3.08565175,-2.08926661 2.95521469,-1.80007202 2.82640809,-1.52566578 C4.07452773,-2.51730747 5.93977772,-3.67162111 8.14090315,-4.77664021 C8.91863413,-5.39035714 9.5308731,-6.19385802 9.83658496,-7.10087743 C10.255614,-8.37267637 11.1694887,-9.47851705 12.4722288,-10.0881261 C14.9676529,-11.2605144 17.9302047,-10.1752131 19.0959859,-7.66037037 C20.2601367,-5.14717078 19.1791395,-2.15745738 16.685346,-0.984247501 C15.3956495,-0.37792475 13.9779617,-0.377103175 12.7518533,-0.863475897 C11.5135164,-1.3605291 10.0836001,-1.29644621 8.78738184,-0.68765873 L8.82895865,-0.711484421 C7.03707951,0.0230041152 5.39601822,0.557028219 4.09979991,0.842114932 C4.57263426,0.963708113 5.08459973,1.11323486 5.61776123,1.29315991 C6.10445452,1.3539565 6.60337628,1.28740888 7.02974243,1.07544239 C7.62323106,0.771459436 8.33574351,0.710662845 9.00994008,0.957957084 C10.3045279,1.43282775 10.9705722,2.8755144 10.4977378,4.17689006 C10.0297949,5.48155203 8.60150903,6.15360082 7.30529072,5.67873016 C6.63598554,5.43307907 6.13624855,4.92863169 5.8721135,4.32148736 C5.60879368,3.70366255 5.07970834,3.21728983 4.41040317,2.96999559 C4.12914825,2.84840241 3.84218672,2.71695032 3.56989935,2.58631981 C4.55225347,3.84168724 5.69765393,5.72391681 6.79740141,7.94217078 C7.40311852,8.7243107 8.20204552,9.34460024 9.10287648,9.65104791 C10.3624094,10.0725162 11.4613416,10.9951455 12.067874,12.3063801 C13.2320247,14.8204012 12.1510276,17.8101146 9.657234,18.9825029 C7.16099472,20.1557128 4.19599725,19.0671252 3.03184647,16.5522825 C2.43183598,15.2517284 2.42939029,13.8246517 2.91119218,12.5881805 C3.40685302,11.3410288 3.34081926,9.89916373 2.73754784,8.59368019 L2.76282003,8.63558054 C2.03318771,6.83057907 1.50247191,5.17839065 1.2187713,3.87208554 C1.09974748,4.34613463 0.948114397,4.86208407 0.772024362,5.39775132 C0.711697221,5.89069665 0.778546216,6.39432246 0.988060747,6.82318489 C1.28888122,7.42129189 1.35002359,8.13852734 1.10382364,8.81714874 C0.63180452,10.1201675 -0.79566608,10.7930379 -2.09025392,10.3181673 C-3.38158084,9.84576132 -4.04925555,8.40143151 -3.57968213,7.10087743 C-3.33592787,6.42472075 -2.83537564,5.92027337 -2.23047377,5.65654762 C-1.61905004,5.38871399 -1.13643291,4.85633304 -0.893493877,4.18017637" id="Fill-11" fill="#FFD978" sketch:type="MSShapeGroup" mask="url(#mask-6)"></path>
                                    </g>
                                    <path d="M16.9576333,20.1507834 L16.1089772,20.1507834 C10.568663,20.1507834 6.83816299,16.6541578 6.83816299,10.9885729 L6.83816299,1.68833774 L16.2459361,1.68833774 C21.7740219,1.68833774 25.1564179,5.62614932 25.1564179,11.0337596 L25.1564179,11.8890197 C20.4052479,11.9325632 16.9576333,14.9765006 16.9576333,19.9264932 L16.9576333,20.1507834" id="Fill-14" fill="#9DCB3B" sketch:type="MSShapeGroup"></path>
                                    <g id="Group-17" transform="translate(6.521853, 1.643151)">
                                        <mask id="mask-8" sketch:name="Clip 16" fill="white">
                                            <use xlink:href="#path-7"></use>
                                        </mask>
                                        <g id="Clip-16"></g>
                                        <path d="M16.2263705,21.4332628 C16.3502858,21.152284 16.4815381,20.8622678 16.6087142,20.5878616 C15.3638555,21.5795032 13.4961598,22.7346384 11.2934039,23.8396576 C10.5173034,24.4517313 9.90424919,25.2560538 9.59853732,26.1655379 C9.18032349,27.4356937 8.26563359,28.5415344 6.96289343,29.1511434 C4.46828461,30.3227102 1.50410237,29.2365873 0.339136362,26.7217446 C-0.823383956,24.2093665 0.25842843,21.2188316 2.75059155,20.0464433 C4.04110324,19.4409421 5.45634536,19.4376558 6.68245375,19.9248501 C7.92242107,20.4235464 9.3531526,20.3569988 10.6477404,19.7490329 L10.6053484,19.7736802 C12.398858,19.0391917 14.0391041,18.504346 15.3361376,18.2200808 C14.8633032,18.0984877 14.352153,17.9497825 13.8181763,17.7682143 C13.331483,17.7090608 12.831746,17.7731437 12.4053799,17.9859318 C11.8118912,18.2899148 11.1018245,18.3507113 10.4259974,18.1042387 C9.13222482,17.6277249 8.46699581,16.1875029 8.93656923,14.8844841 C9.40532742,13.5814653 10.8368742,12.9077734 12.1298316,13.3818225 C12.799952,13.6282951 13.3005042,14.1327425 13.5646392,14.74153 C13.8271438,15.3593548 14.3554139,15.8457275 15.02798,16.0913786 C15.3076045,16.2146149 15.5961965,16.3444239 15.8660382,16.475876 C14.8820536,15.2196869 13.7382836,13.3374574 12.6393513,11.120025 C12.032819,10.3387066 11.2347072,9.71923868 10.3322458,9.41114785 C9.07271291,8.99132275 7.97541113,8.06622869 7.36806356,6.7558157 C6.20472801,4.24261611 7.28327947,1.2529027 9.77788828,0.0821575544 C12.2749428,-1.09105232 15.2407555,-0.00492945326 16.4032758,2.51073486 C17.0032863,3.81046737 17.005732,5.23754409 16.5247453,6.47401529 C16.0290845,7.72116696 16.094303,9.16221046 16.6967592,10.4685156 L16.6739327,10.4257937 C17.403565,12.2324383 17.9334656,13.8846267 18.2171662,15.192575 C18.3353748,14.7168827 18.4861927,14.2009333 18.6647284,13.665266 C18.7234251,13.1723207 18.6565761,12.670338 18.4470615,12.2381893 C18.1470563,11.6417255 18.0867291,10.9228469 18.3312986,10.2442255 C18.8033178,8.94284979 20.2332341,8.26915785 21.524561,8.74320694 C22.8175184,9.21725603 23.4860083,10.6591211 23.0148044,11.9629615 C22.7726806,12.637475 22.2721284,13.1419224 21.6672265,13.4064697 C21.0541723,13.6718386 20.57074,14.2042196 20.3286162,14.8811978 C20.2055162,15.1638198 20.0750791,15.4530144 19.9462725,15.7274206 C21.1943922,14.735779 23.0596421,13.5814653 25.2607676,12.4764462 C26.0384986,11.8627293 26.6507375,11.0592284 26.9564494,10.152209 C27.3754784,8.88041005 28.2893531,7.77456937 29.5920933,7.16496032 C32.0875173,5.99257202 35.0500691,7.07787331 36.2158503,9.59271605 C37.3800011,12.1059156 36.299004,15.095629 33.8052104,16.2688389 C32.5155139,16.8751617 31.0978261,16.8759832 29.8717177,16.3896105 C28.6333809,15.8925573 27.2034646,15.9566402 25.9072463,16.5654277 L25.9488231,16.541602 C24.1569439,17.2760905 22.5158826,17.8101146 21.2196643,18.0952014 C21.6924987,18.2167945 22.2044642,18.3663213 22.7376257,18.5462463 C23.2243189,18.6070429 23.7232407,18.5404953 24.1496069,18.3285288 C24.7430955,18.0245459 25.4556079,17.9637493 26.1298045,18.2110435 C27.4243923,18.6859142 28.0904366,20.1286008 27.6176022,21.4299765 C27.1496593,22.7346384 25.7213735,23.4066872 24.4251551,22.9318166 C23.75585,22.6861655 23.256113,22.1817181 22.9919779,21.5745738 C22.7286581,20.956749 22.1995728,20.4703762 21.5302676,20.223082 C21.2490127,20.1014888 20.9620511,19.9700367 20.6897638,19.8394062 C21.6721179,21.0947737 22.8175184,22.9770032 23.9172658,25.1952572 C24.5229829,25.9773971 25.3219099,26.5976867 26.2227409,26.9041343 C27.4822738,27.3256026 28.581206,28.2482319 29.1877384,29.5594665 C30.3518892,32.0734877 29.270892,35.0632011 26.7770984,36.2355894 C24.2808591,37.4087992 21.3158617,36.3202116 20.1517109,33.8053689 C19.5517004,32.5048148 19.5492547,31.0777381 20.0310566,29.8412669 C20.5267174,28.5941152 20.4606837,27.1522501 19.8574123,25.8467666 L19.8826845,25.888667 C19.1530521,24.0836655 18.6223363,22.4314771 18.3386357,21.125172 C18.2196119,21.599221 18.0679788,22.1151705 17.8918888,22.6508377 C17.8315616,23.1437831 17.8984106,23.6474089 18.1079252,24.0762713 C18.4087456,24.6743783 18.469888,25.3916138 18.2236881,26.0702352 C17.7516689,27.373254 16.3241983,28.0461243 15.0296105,27.5712537 C13.7382836,27.0988477 13.0706089,25.6545179 13.5401823,24.3539638 C13.7839366,23.6778072 14.2844888,23.1733598 14.8893907,22.909634 C15.5008144,22.6418004 15.9834315,22.1094195 16.2263705,21.4332628" id="Fill-15" fill="#B9D775" sketch:type="MSShapeGroup" mask="url(#mask-8)"></path>
                                    </g>
                                    <path d="M26.0588794,11.8840902 C26.0588794,9.00775426 28.3708763,6.67447972 31.2250022,6.66708554 L31.7655008,6.66708554 L31.7655008,11.8775176 L31.2250022,11.8775176 L26.0588794,11.8840902" id="Fill-18" fill="#0066B2" sketch:type="MSShapeGroup"></path>
                                    <g id="Group-21" transform="translate(25.272181, 6.572604)">
                                        <mask id="mask-10" sketch:name="Clip 20" fill="white">
                                            <use xlink:href="#path-9"></use>
                                        </mask>
                                        <g id="Clip-20"></g>
                                        <path d="M-2.52395716,16.5038095 C-2.40004195,16.2228307 -2.26878965,15.9328145 -2.14161352,15.6584083 C-3.38647223,16.65005 -5.25416792,17.8051852 -7.4569238,18.9102043 C-8.23302433,19.5222781 -8.84607852,20.3266005 -9.15179038,21.2360847 C-9.57000421,22.5062404 -10.4846941,23.6120811 -11.7874343,24.2216902 C-14.2820431,25.3932569 -17.2462253,24.307134 -18.4111913,21.7922913 C-19.5737117,19.2799133 -18.4918993,16.2893783 -15.9997362,15.11699 C-14.7092245,14.5114888 -13.2939823,14.5082025 -12.067874,14.9953968 C-10.8279066,15.4940932 -9.39717511,15.4275456 -8.10258726,14.8195797 L-8.14497931,14.8442269 C-6.3514697,14.1097384 -4.71122364,13.5748927 -3.41419011,13.2906276 C-3.88702446,13.1690344 -4.39817469,13.0203292 -4.93215142,12.838761 C-5.41884471,12.7796076 -5.9185817,12.8436905 -6.34494785,13.0564785 C-6.93843648,13.3604615 -7.64850324,13.4212581 -8.32433027,13.1747854 C-9.61810288,12.6982716 -10.2833319,11.2580497 -9.81375847,9.95503086 C-9.34500028,8.65201205 -7.91345352,7.97832011 -6.62049614,8.45236919 C-5.95037574,8.69884186 -5.44982351,9.20328924 -5.18568846,9.81207672 C-4.92318387,10.4299015 -4.39491377,10.9162743 -3.72234767,11.1619253 C-3.44272321,11.2851617 -3.15413121,11.4149706 -2.88428954,11.5464227 C-3.86827413,10.2902337 -5.01204412,8.40800412 -6.11097637,6.19057172 C-6.71750871,5.40925338 -7.51562048,4.78978542 -8.41808191,4.48169459 C-9.67761479,4.06186949 -10.7749166,3.13677543 -11.3822641,1.82636243 C-12.5455997,-0.686837155 -11.4670482,-3.67655056 -8.97243942,-4.84729571 C-6.47538491,-6.02050558 -3.50957221,-4.93438272 -2.34705189,-2.4187184 C-1.7470414,-1.11898589 -1.74459571,0.308090829 -2.22558238,1.54456202 C-2.72124321,2.7917137 -2.65602468,4.2327572 -2.0535685,5.53906232 L-2.07639499,5.49634039 C-1.34676267,7.30298501 -0.816862103,8.95517343 -0.533161492,10.2631217 C-0.414952904,9.78742945 -0.264135051,9.27148001 -0.0855993221,8.73581276 C-0.0269026441,8.24286743 -0.0937516385,7.74088477 -0.30326617,7.30873604 C-0.603271413,6.71227219 -0.663598554,5.99339359 -0.419029063,5.31477219 C0.0529900566,4.01339653 1.48290635,3.33970459 2.77423327,3.81375367 C4.06719065,4.28780276 4.73568059,5.72966784 4.26447671,7.03350823 C4.02235291,7.70802175 3.52180068,8.21246914 2.91689881,8.47701646 C2.30384461,8.74238536 1.82041225,9.27476631 1.57828845,9.95174456 C1.45518848,10.2343665 1.32475141,10.5235611 1.19594481,10.7979674 C2.44406445,9.80632569 4.30931445,8.65201205 6.51043987,7.54699295 C7.28817086,6.93327601 7.90040982,6.12977513 8.20612168,5.22275573 C8.62515074,3.95095679 9.53902541,2.84511611 10.8417656,2.23550705 C13.3371896,1.06311875 16.2997414,2.14842005 17.4655226,4.66326279 C18.6296734,7.17646238 17.5486763,10.1661758 15.0548827,11.3393857 C13.7651862,11.9457084 12.3474984,11.94653 11.12139,11.4601573 C9.88305316,10.9631041 8.45313687,11.0271869 7.15691856,11.6359744 L7.19849537,11.6121487 C5.40661623,12.3466373 3.76555494,12.8806614 2.46933664,13.1657481 C2.94217099,13.2873413 3.45413646,13.436868 3.98729795,13.6167931 C4.47399124,13.6775897 4.972913,13.611042 5.39927915,13.3990755 C5.99276778,13.0950926 6.70528023,13.034296 7.3794768,13.2815902 C8.67406464,13.7564609 9.34010889,15.1991476 8.86727454,16.5005232 C8.39933158,17.8051852 6.97104575,18.477234 5.67482744,18.0023633 C5.00552227,17.7567122 4.50578527,17.2522648 4.24165022,16.6451205 C3.9783304,16.0272957 3.44924507,15.540923 2.77993989,15.2936287 C2.49868497,15.1720356 2.21172344,15.0405835 1.93943607,14.909953 C2.9217902,16.1653204 4.06719065,18.04755 5.16693813,20.2658039 C5.77265524,21.0479439 6.57158224,21.6682334 7.47241321,21.9746811 C8.73194609,22.3961493 9.83087834,23.3187787 10.4374107,24.6300132 C11.6015615,27.1440344 10.5205643,30.1337478 8.02677072,31.3061361 C5.53053144,32.479346 2.56553397,31.3907584 1.40138319,28.8759156 C0.801372701,27.5753616 0.798927007,26.1482848 1.28072891,24.9118136 C1.77638974,23.664662 1.71035598,22.2227969 1.10708457,20.9173133 L1.13235675,20.9592137 C0.40272443,19.1542122 -0.127991367,17.5020238 -0.411691978,16.1957187 C-0.530715797,16.6697678 -0.682348882,17.1857172 -0.858438916,17.7213845 C-0.918766057,18.2143298 -0.851917063,18.7179556 -0.642402532,19.146818 C-0.341582057,19.744925 -0.280439684,20.4621605 -0.526639639,21.1407819 C-0.998658758,22.4438007 -2.42612936,23.1166711 -3.7207172,22.6418004 C-5.01204412,22.1693945 -5.67971883,20.7250647 -5.21014541,19.4245106 C-4.96639115,18.7483539 -4.46583892,18.2439065 -3.86093704,17.9801808 C-3.24951331,17.7123471 -2.76689618,17.1799662 -2.52395716,16.5038095" id="Fill-19" fill="#5184C3" sketch:type="MSShapeGroup" mask="url(#mask-10)"></path>
                                    </g>
                                    <path d="M23.5561182,27.6961332 C23.5561182,30.3358554 21.4348855,32.4768812 18.8171767,32.4826323 L17.8584643,32.4826323 L17.8584643,27.7035273 L18.814731,27.7035273 L23.5561182,27.6961332" id="Fill-22" fill="#652D90" sketch:type="MSShapeGroup"></path>
                                    <g id="Group-25" transform="translate(17.119864, 27.111993)">
                                        <mask id="mask-12" sketch:name="Clip 24" fill="white">
                                            <use xlink:href="#path-11"></use>
                                        </mask>
                                        <g id="Clip-24"></g>
                                        <path d="M5.62835924,-4.03557907 C5.75227445,-4.31655791 5.88352674,-4.60657407 6.01070288,-4.88098031 C4.76584416,-3.88933862 2.89814848,-2.73420341 0.695392588,-1.6291843 C-0.0807079323,-1.01711052 -0.693762125,-0.212788066 -0.99947399,0.696696061 C-1.41768782,1.96685185 -2.33237772,3.07269253 -3.63511788,3.68230159 C-6.1297267,4.85386831 -9.09390894,3.76774544 -10.2588749,1.2529027 C-11.4213953,-1.25947531 -10.3395829,-4.25001029 -7.84741976,-5.42239859 C-6.55690807,-6.02789976 -5.14166595,-6.03118607 -3.91555756,-5.54399177 C-2.67559024,-5.04529541 -1.24485871,-5.11184303 0.04972913,-5.71980894 L0.00733708475,-5.69516167 C1.80084669,-6.42965021 3.44109275,-6.96449588 4.73812629,-7.24876102 C4.26529194,-7.3703542 3.7541417,-7.51905938 3.22016498,-7.70062757 C2.73347169,-7.75978101 2.23373469,-7.69569812 1.80736854,-7.48291005 C1.21387991,-7.1789271 0.503813153,-7.11813051 -0.172013876,-7.36460317 C-1.46578649,-7.84111699 -2.13101551,-9.28133892 -1.66144208,-10.5843577 C-1.19268389,-11.8873765 0.23886287,-12.5610685 1.53182025,-12.0870194 C2.20194066,-11.8405467 2.70249288,-11.3360994 2.96662794,-10.7273119 C3.22913252,-10.1094871 3.75740263,-9.62311434 4.42996873,-9.37746326 C4.70959318,-9.25422693 4.99818518,-9.12441799 5.26802685,-8.9929659 C4.28404226,-10.2491549 3.14027227,-12.1313845 2.04134002,-14.3488169 C1.43480769,-15.1301352 0.63669591,-15.7496032 -0.265765514,-16.057694 C-1.5252984,-16.4775191 -2.62260018,-17.4026132 -3.22994775,-18.7130262 C-4.3932833,-21.2262257 -3.31473185,-24.2159392 -0.820123029,-25.3866843 C1.67693148,-26.5598942 4.64274419,-25.4737713 5.8052645,-22.958107 C6.40527499,-21.6583745 6.40772068,-20.2312978 5.92673402,-18.9948266 C5.43107318,-17.7476749 5.49629171,-16.3066314 6.09874789,-15.0003263 L6.07592141,-15.0430482 C6.80555372,-13.2364036 7.33545429,-11.5842152 7.6191549,-10.2762669 C7.73736349,-10.7519591 7.88818134,-11.2679086 8.06671707,-11.8035758 C8.12541375,-12.2965212 8.05856475,-12.7985038 7.84905022,-13.2306526 C7.54904498,-13.8271164 7.48871784,-14.545995 7.73328733,-15.2246164 C8.20530645,-16.5259921 9.63522274,-17.199684 10.9265497,-16.7256349 C12.219507,-16.2515858 12.887997,-14.8097208 12.4167931,-13.5058804 C12.1746693,-12.8313668 11.6741171,-12.3269195 11.0692152,-12.0623721 C10.456161,-11.7970032 9.97272864,-11.2646223 9.73060485,-10.587644 C9.60750487,-10.305022 9.47706781,-10.0158275 9.34826121,-9.74142122 C10.5963808,-10.7330629 12.4616308,-11.8873765 14.6627563,-12.9923956 C15.4404872,-13.6061126 16.0527262,-14.4096135 16.3584381,-15.3166329 C16.7774671,-16.5884318 17.6913418,-17.6942725 18.994082,-18.3038815 C21.489506,-19.4762698 24.4520578,-18.3909685 25.617839,-15.8761258 C26.7819898,-13.3629262 25.7009927,-10.3732128 23.2071991,-9.20000294 C21.9175026,-8.59368019 20.4998148,-8.59285861 19.2737064,-9.07923133 C18.0353696,-9.57628454 16.6054533,-9.51220165 15.309235,-8.90341417 L15.3508118,-8.92723986 C13.5589326,-8.19275132 11.9178713,-7.65872722 10.621653,-7.37364051 C11.0944874,-7.25204733 11.6064528,-7.10252058 12.1396143,-6.92259553 C12.6263076,-6.86179894 13.1252294,-6.92834656 13.5515955,-7.14031305 C14.1450842,-7.444296 14.8575966,-7.50509259 15.5317932,-7.25779835 C16.826381,-6.78292769 17.4924253,-5.34024103 17.0195909,-4.03886537 C16.551648,-2.73420341 15.1233621,-2.06215461 13.8271438,-2.53702528 C13.1578387,-2.78267637 12.6581017,-3.28712375 12.3939666,-3.89426808 C12.1306468,-4.51209289 11.6015615,-4.99846561 10.9322563,-5.24575985 C10.6510014,-5.36735303 10.3640398,-5.49880511 10.0917525,-5.62943563 C11.0741066,-4.3740682 12.219507,-2.49183862 13.3192545,-0.273584656 C13.9249716,0.508555262 14.7238986,1.1288448 15.6247296,1.43529248 C16.8842625,1.85676073 17.9831947,2.77939006 18.5897271,4.09062463 C19.7538779,6.6046458 18.6728807,9.5943592 16.1790871,10.7667475 C13.6828478,11.9399574 10.7178504,10.8513698 9.55369958,8.33652704 C8.95368909,7.03597296 8.9512434,5.60889624 9.4330453,4.37242504 C9.92870613,3.12527337 9.86267237,1.68340829 9.25940096,0.37792475 L9.28467314,0.419825103 C8.55504082,-1.38517637 8.02432503,-3.03736479 7.74062442,-4.3436699 C7.6216006,-3.86962081 7.46996751,-3.35367137 7.29387748,-2.81800412 C7.23355034,-2.32505879 7.30039933,-1.82143298 7.50991386,-1.39257055 C7.81073434,-0.794463551 7.87187671,-0.0772281011 7.62567675,0.601393298 C7.15365763,1.90441211 5.72618703,2.57728248 4.43159919,2.10241182 C3.14027227,1.63000588 2.47259756,0.185676073 2.94217099,-1.11487801 C3.18592525,-1.79103469 3.68647747,-2.29548207 4.29137935,-2.55920782 C4.90280308,-2.82704145 5.38542021,-3.3594224 5.62835924,-4.03557907" id="Fill-23" fill="#8763A9" sketch:type="MSShapeGroup" mask="url(#mask-12)"></path>
                                    </g>
                                </g>
                            </g>
                        </g>
                    </g>
                </g>
            </g>
        </g>
    </g>
</svg>