<?xml version="1.0" encoding="UTF-8" standalone="no"?>
<svg width="260px" height="196px" viewBox="0 0 260 196" version="1.1" xmlns="http://www.w3.org/2000/svg" xmlns:xlink="http://www.w3.org/1999/xlink" xmlns:sketch="http://www.bohemiancoding.com/sketch/ns">
    <!-- Generator: Sketch 3.4.2 (15857) - http://www.bohemiancoding.com/sketch -->
    <title>Group Copy 6 + Path 1233 Copy 2 Copy</title>
    <desc>Created with Sketch.</desc>
    <defs>
        <ellipse id="path-1" cx="97.8352172" cy="97.8665998" rx="97.8352172" ry="97.8665998"></ellipse>
    </defs>
    <g id="Page-1" stroke="none" stroke-width="1" fill="none" fill-rule="evenodd" sketch:type="MSPage">
        <g id="Order-&amp;-Shipping-Information" sketch:type="MSArtboardGroup" transform="translate(-590.000000, -368.000000)">
            <g id="Group-Copy-6-+-Path-1233-Copy-2-Copy" sketch:type="MSLayerGroup" transform="translate(591.000000, 368.000000)">
                <g id="Group-Copy-6">
                    <g id="Group">
                        <g transform="translate(38.222222, 0.201352)">
                            <mask id="mask-2" sketch:name="Mask" fill="white">
                                <use xlink:href="#path-1"></use>
                            </mask>
                            <use id="Mask" fill="#65768F" sketch:type="MSShapeGroup" xlink:href="#path-1"></use>
                            <g mask="url(#mask-2)" sketch:type="MSShapeGroup">
                                <g transform="translate(21.215703, 88.938104)">
                                    <rect id="Rectangle-293" fill="#D8D8D8" x="0.00435889664" y="0.0979134551" width="154.814591" height="119.141948" rx="6"></rect>
                                    <rect id="Rectangle-293-Copy" fill="#5F5D5D" x="7.57681173" y="9.45906648" width="139.472605" height="100.419642" rx="1"></rect>
                                </g>
                            </g>
                        </g>
                        <path d="M144.221244,17.9414895 L124.65606,52.5802814 L134.234324,51.9733605 L129.383,80.1018668 C129.101814,81.7322108 129.545294,81.8922238 130.375799,80.4553562 L151.10617,44.5894799 L140.72802,45.6802674 L144.221244,17.9414895 Z" id="Path-984-Copy-3" stroke="#FBC731" stroke-linecap="round" stroke-linejoin="round" fill="#FBC731" sketch:type="MSShapeGroup"></path>
                        <path d="M198.087543,32.4551012 L164.550583,53.8540417 L173.29262,57.8148847 L155.803621,80.373323 C154.789949,81.6808227 155.106397,82.0303069 156.514258,81.1515267 L191.656098,59.2161571 L181.980642,55.3070191 L198.087543,32.4551012 Z" id="Path-984-Copy-4" stroke="#FBC731" stroke-linecap="round" stroke-linejoin="round" fill="#FBC731" sketch:type="MSShapeGroup"></path>
                        <path d="M74.027336,32.4551012 L107.564296,53.8540417 L98.8222589,57.8148847 L116.311258,80.373323 C117.32493,81.6808227 117.008482,82.0303069 115.600621,81.1515267 L80.4587809,59.2161571 L90.1342369,55.3070191 L74.027336,32.4551012 Z" id="Path-984-Copy-5" stroke="#FBC731" stroke-linecap="round" stroke-linejoin="round" fill="#FBC731" sketch:type="MSShapeGroup"></path>
                        <path d="M96.4698551,109.495009 L78.1277437,109.495009" id="Line-Copy-99" stroke="#7ED321" stroke-width="3" stroke-linecap="round" sketch:type="MSShapeGroup"></path>
                        <path d="M58.0608299,77.8328263 L0.682539683,77.8328264" id="Line-Copy-101" stroke="#99F237" stroke-width="3" stroke-linecap="round" sketch:type="MSShapeGroup"></path>
                        <path d="M227.42614,50.5126656 L212.25947,50.5126656" id="Line-Copy-102" stroke="#99F237" stroke-width="3" stroke-linecap="round" sketch:type="MSShapeGroup"></path>
                        <path d="M108.766791,29.9457021 L100.804777,29.9457021" id="Line-Copy-105" stroke="#99F237" stroke-width="3" stroke-linecap="round" sketch:type="MSShapeGroup"></path>
                        <path d="M200.003014,15.4852027 L165.171066,15.4852027" id="Line-Copy-103" stroke="#99F237" stroke-width="3" stroke-linecap="round" sketch:type="MSShapeGroup"></path>
                        <path d="M257.321522,73.7362746 L199.690032,73.7362746" id="Line-Copy-104" stroke="#99F237" stroke-width="3" stroke-linecap="round" sketch:type="MSShapeGroup"></path>
                        <path d="M116.244879,109.495009 L108.351271,109.495009" id="Line-Copy-100" stroke="#7ED321" stroke-width="3" stroke-linecap="round" sketch:type="MSShapeGroup"></path>
                    </g>
                </g>
                <path d="M116.985307,147.687359 C116.985307,147.687359 106.975589,136.488748 116.985307,128.75082 C126.995024,121.012891 133.730822,130.150646 133.730822,130.150646 L136.521742,132.950299 L139.312661,130.150646 C139.312661,130.150646 144.894499,123.151515 151.871798,125.951167 C158.849096,128.75082 164.189433,139.288401 157.212135,146.287532 C150.234837,153.286664 136.521742,166.546128 136.521742,166.546128 C125.836701,157.167463 116.985307,147.687359 116.985307,147.687359 Z" id="Path-1233-Copy-2" fill="#FC554A" sketch:type="MSShapeGroup"></path>
            </g>
        </g>
    </g>
</svg>