<?xml version="1.0" encoding="UTF-8" standalone="no"?>
<svg width="338px" height="192px" viewBox="0 0 338 192" version="1.1" xmlns="http://www.w3.org/2000/svg" xmlns:xlink="http://www.w3.org/1999/xlink" xmlns:sketch="http://www.bohemiancoding.com/sketch/ns">
    <!-- Generator: Sketch 3.4.2 (15857) - http://www.bohemiancoding.com/sketch -->
    <title>Group Copy 4</title>
    <desc>Created with Sketch.</desc>
    <defs>
        <ellipse id="path-1" cx="82.2149758" cy="82.1694915" rx="82.2149758" ry="82.1694915"></ellipse>
    </defs>
    <g id="Page-1" stroke="none" stroke-width="1" fill="none" fill-rule="evenodd" sketch:type="MSPage">
        <g id="Payment-Confirmation-Sucessful" sketch:type="MSArtboardGroup" transform="translate(-562.000000, -344.000000)">
            <g id="Group-Copy-4" sketch:type="MSLayerGroup" transform="translate(563.000000, 344.000000)">
                <g id="Group" transform="translate(29.304348, 27.661017)">
                    <mask id="mask-2" sketch:name="Mask" fill="white">
                        <use xlink:href="#path-1"></use>
                    </mask>
                    <use id="Mask" fill="#FAC731" sketch:type="MSShapeGroup" xlink:href="#path-1"></use>
                    <g mask="url(#mask-2)">
                        <g transform="translate(0.000000, 41.050847)">
                            <g transform="translate(0.000000, 0.278450)">
                                <path d="M0,98.719128 L47.6615168,14.9195485 C47.6615168,14.9195485 53.5766236,0.106448637 65.4068374,0.106448637 L118.642799,0.106448637 C118.642799,0.106448637 121.518799,0.106448637 124.434728,0.81668127 C127.432763,1.54691259 130.473009,3.02793705 130.473013,6.03168858 C130.473024,14.9195485 130.473013,47.5083682 130.473013,47.5083682 C130.473013,47.5083682 132.436105,64.7239711 117.648338,64.7239706 C102.86057,64.7239702 83.7113171,64.7239706 83.7113171,64.7239706 L55.0986017,121.382566" id="Path-1147" stroke="#B89C7E" stroke-width="2" fill="#FCE9D4" sketch:type="MSShapeGroup"></path>
                                <path d="M65.4068374,30.4813903 L81.4488494,15.293919 L92.0248183,15.2939195 L92.0248183,21.3689078 L92.0248183,27.4438961 C92.0248183,27.4438961 92.7611896,31.5027312 99.5485937,31.5027312 C106.335998,31.5027312 106.812585,27.4438961 106.812585,27.4438961 L106.812585,0.106448637" id="Path-1148" stroke="#B89C7E" stroke-width="2" sketch:type="MSShapeGroup"></path>
                                <path d="M129.739505,31.7136746 L83.6355321,31.7136746 C83.6355321,31.7136746 78.436253,31.7136751 78.436253,23.565653 C78.436253,15.4176309 83.6355321,15.4176309 83.6355321,15.4176309 L92.7611892,15.4176309" id="Path-1150" stroke="#B89C7E" stroke-width="2" sketch:type="MSShapeGroup"></path>
                                <path d="M129.739505,47.7987749 L83.6355321,47.7987749 C83.6355321,47.7987749 78.436253,47.7987754 78.436253,39.6507533 C78.436253,31.5027312 83.6355321,31.5027312 83.6355321,31.5027312 L92.7611892,31.5027312" id="Path-1150-Copy" stroke="#B89C7E" stroke-width="2" sketch:type="MSShapeGroup"></path>
                                <path d="M83.635532,64.723971 C83.635532,64.723971 78.436253,64.0948191 78.436253,55.946797 C78.436253,47.7987749 83.6355321,47.7987749 83.6355321,47.7987749 L92.7611892,47.7987749" id="Path-1150-Copy-2" stroke="#B89C7E" stroke-width="2" sketch:type="MSShapeGroup"></path>
                                <path d="M107.467231,14.8644068 L130.091912,14.8644068" id="Line" stroke="#B89C7E" stroke-width="2" stroke-linecap="square" sketch:type="MSShapeGroup"></path>
                                <path id="Path-1152" stroke="#B89C7E" sketch:type="MSShapeGroup" d=""></path>
                            </g>
                        </g>
                    </g>
                </g>
                <rect id="Rectangle-264-Copy" stroke="#D46117" stroke-width="2" fill="#FF7E2B" sketch:type="MSShapeGroup" x="221.61413" y="24.9297821" width="115.38587" height="61.1912833"></rect>
                <rect id="Rectangle-264" stroke="#D46117" stroke-width="2" fill="#FF7E2B" sketch:type="MSShapeGroup" x="135.005897" y="0" width="113.472942" height="61.1912833"></rect>
                <text id="Thank" sketch:type="MSTextLayer" font-family="Gotham" font-size="27.0738716" font-weight="bold" fill="#FBE8D3">
                    <tspan x="146.952685" y="40.598063">Thank</tspan>
                </text>
                <text id="You-!" sketch:type="MSTextLayer" font-family="Gotham" font-size="27.0738716" font-weight="bold" fill="#FBE8D3">
                    <tspan x="253.288683" y="63.2615012">You !</tspan>
                </text>
                <rect id="Rectangle-263" fill="#8B572A" sketch:type="MSShapeGroup" x="122.065537" y="0" width="15.8372762" height="68.3389831"></rect>
                <path d="M223.038647,60 L248.000001,61 L223.038647,84.6101695 L223.038647,60 Z" id="Rectangle-270" fill="#D46117" sketch:type="MSShapeGroup"></path>
                <path d="M91.9830918,52.8813559 L0.581731354,52.8813559" id="Line-Copy-90" stroke="#65768F" stroke-width="3" stroke-linecap="round" sketch:type="MSShapeGroup"></path>
                <path d="M222.224638,155.389831 L130.823277,155.389831" id="Line-Copy-91" stroke="#65768F" stroke-width="3" stroke-linecap="round" sketch:type="MSShapeGroup"></path>
                <path d="M168.5,144 L156.871586,144" id="Line-Copy-94" stroke="#65768F" stroke-width="3" stroke-linecap="round" sketch:type="MSShapeGroup"></path>
                <path d="M105.007246,41.4915254 L93.3788328,41.4915254" id="Line-Copy-95" stroke="#65768F" stroke-width="3" stroke-linecap="round" sketch:type="MSShapeGroup"></path>
            </g>
        </g>
    </g>
</svg>